<?xml version="1.0" encoding="utf-8"?>
<!-- Generator: Adobe Illustrator 24.0.0, SVG Export Plug-In . SVG Version: 6.00 Build 0)  -->
<!DOCTYPE svg PUBLIC "-//W3C//DTD SVG 1.1//EN" "http://www.w3.org/Graphics/SVG/1.1/DTD/svg11.dtd" [
	<!ENTITY ns_extend "http://ns.adobe.com/Extensibility/1.0/">
	<!ENTITY ns_ai "http://ns.adobe.com/AdobeIllustrator/10.0/">
	<!ENTITY ns_graphs "http://ns.adobe.com/Graphs/1.0/">
	<!ENTITY ns_vars "http://ns.adobe.com/Variables/1.0/">
	<!ENTITY ns_imrep "http://ns.adobe.com/ImageReplacement/1.0/">
	<!ENTITY ns_sfw "http://ns.adobe.com/SaveForWeb/1.0/">
	<!ENTITY ns_custom "http://ns.adobe.com/GenericCustomNamespace/1.0/">
	<!ENTITY ns_adobe_xpath "http://ns.adobe.com/XPath/1.0/">
]>
<svg version="1.1" id="Layer_1" xmlns:x="&ns_extend;" xmlns:i="&ns_ai;" xmlns:graph="&ns_graphs;"
	 xmlns="http://www.w3.org/2000/svg" xmlns:xlink="http://www.w3.org/1999/xlink" x="0px" y="0px" width="725.2px" height="540.3px"
	 viewBox="0 0 725.2 540.3" style="enable-background:new 0 0 725.2 540.3;" xml:space="preserve">
<style type="text/css">
	.st0{fill:url(#SVGID_1_);}
	.st1{opacity:0.5;}
	.st2{fill:#7F4B96;}
	.st3{fill:none;stroke:#7F4B96;stroke-miterlimit:10;}
	.st4{fill:#302E49;}
	.st5{fill:url(#SVGID_2_);}
	.st6{fill:url(#SVGID_3_);}
	.st7{fill:#FFFFFF;}
	.st8{fill:#C9C0FF;}
	.st9{fill:url(#SVGID_4_);}
	.st10{fill:url(#SVGID_5_);}
	.st11{fill:url(#SVGID_6_);}
	.st12{fill:none;stroke:#FFE4E0;stroke-width:4;stroke-linecap:round;stroke-miterlimit:10;}
	.st13{fill:none;stroke:#FFD2D2;stroke-width:7;stroke-linecap:round;stroke-linejoin:round;}
	.st14{fill:url(#SVGID_7_);}
	.st15{fill:url(#SVGID_8_);}
	.st16{fill:url(#SVGID_9_);}
	.st17{fill:url(#SVGID_10_);}
	.st18{fill:url(#SVGID_11_);}
	.st19{fill:url(#SVGID_12_);}
	.st20{fill:url(#SVGID_13_);}
	.st21{fill:url(#SVGID_14_);}
	.st22{fill:url(#SVGID_15_);}
	.st23{fill:url(#SVGID_16_);}
	.st24{fill:url(#SVGID_17_);}
	.st25{fill:url(#SVGID_18_);}
	.st26{fill:url(#SVGID_19_);}
	.st27{fill:url(#SVGID_20_);}
	.st28{fill:url(#SVGID_21_);}
	.st29{fill:url(#SVGID_22_);}
	.st30{fill:url(#SVGID_23_);}
	.st31{fill:url(#SVGID_24_);}
	.st32{fill:url(#SVGID_25_);}
	.st33{fill:url(#SVGID_26_);}
	.st34{fill:url(#SVGID_27_);}
	.st35{fill:url(#SVGID_28_);}
	.st36{fill:url(#SVGID_29_);}
	.st37{fill:url(#SVGID_30_);}
	.st38{fill:url(#SVGID_31_);}
	.st39{fill:url(#SVGID_32_);}
	.st40{fill:url(#SVGID_33_);}
	.st41{fill:url(#SVGID_34_);}
	.st42{fill:url(#SVGID_35_);}
	.st43{fill:url(#SVGID_36_);}
	.st44{fill:url(#SVGID_37_);}
	.st45{fill:url(#SVGID_38_);}
	.st46{fill:url(#SVGID_39_);}
	.st47{fill:url(#SVGID_40_);}
	.st48{fill:#FF5760;}
	.st49{fill:none;stroke:#FFD2D2;stroke-width:7;stroke-linecap:round;stroke-linejoin:round;stroke-miterlimit:10;}
	.st50{fill:url(#SVGID_41_);}
	.st51{fill:url(#SVGID_42_);}
	.st52{fill:url(#SVGID_43_);}
	.st53{fill:#FFD2D2;}
	.st54{fill:none;stroke:#302E49;stroke-miterlimit:10;}
	.st55{fill:url(#SVGID_44_);}
	.st56{fill:url(#SVGID_45_);}
	.st57{fill:url(#SVGID_46_);}
	.st58{fill:url(#SVGID_47_);}
	.st59{fill:none;stroke:url(#SVGID_48_);stroke-width:2;stroke-linecap:round;stroke-miterlimit:10;}
	.st60{fill:url(#SVGID_49_);}
	.st61{fill:url(#SVGID_50_);}
	.st62{fill:none;stroke:#FFFFFF;stroke-miterlimit:10;}
	.st63{fill:url(#SVGID_51_);}
	.st64{fill:url(#SVGID_52_);}
	.st65{fill:#E9DEFF;}
	.st66{fill:url(#SVGID_53_);}
	.st67{fill:url(#SVGID_54_);}
	.st68{fill:none;stroke:#302E49;stroke-width:2;stroke-linecap:round;stroke-miterlimit:10;}
	.st69{opacity:0.3;fill:none;stroke:#E9DEFF;stroke-width:2;stroke-linecap:round;stroke-miterlimit:10;enable-background:new    ;}
	.st70{fill:#554081;}
	.st71{opacity:0.5;fill:none;stroke:#E9DEFF;stroke-width:3;stroke-linecap:round;stroke-miterlimit:10;enable-background:new    ;}
	.st72{fill:url(#SVGID_55_);}
	.st73{fill:url(#SVGID_56_);}
	.st74{fill:url(#SVGID_57_);}
	.st75{fill:url(#SVGID_58_);}
	.st76{fill:url(#SVGID_59_);}
	.st77{fill:url(#SVGID_60_);}
	.st78{fill:none;stroke:#7F4B96;stroke-width:14;stroke-linejoin:round;stroke-miterlimit:10;}
	.st79{fill:none;stroke:#FFFFFF;stroke-width:5;stroke-linecap:round;stroke-linejoin:round;stroke-miterlimit:10;}
	.st80{fill:url(#SVGID_61_);}
	.st81{fill:url(#SVGID_62_);}
	.st82{fill:#FFFFFF;stroke:#FF5760;stroke-linecap:round;stroke-miterlimit:10;}
	.st83{fill:url(#SVGID_63_);}
	.st84{fill:none;stroke:#302E49;stroke-linecap:round;stroke-miterlimit:10;}
	.st85{fill:none;stroke:#302E49;stroke-width:3;stroke-linecap:round;stroke-miterlimit:10;}
	.st86{fill:none;stroke:#FFFFFF;stroke-width:6;stroke-miterlimit:10;}
	.st87{fill:url(#SVGID_64_);}
	.st88{fill:none;stroke:#E9DEFF;stroke-width:2;stroke-miterlimit:10;}
	.st89{fill:url(#SVGID_65_);}
	.st90{fill:url(#SVGID_66_);}
	.st91{fill:url(#SVGID_67_);}
	.st92{fill:url(#SVGID_68_);}
	.st93{fill:url(#SVGID_69_);}
	.st94{fill:url(#SVGID_70_);}
	.st95{fill:url(#SVGID_71_);}
	.st96{fill:url(#SVGID_72_);}
	.st97{fill:url(#SVGID_73_);}
	.st98{fill:url(#SVGID_74_);}
	.st99{fill:none;stroke:#FF5760;stroke-width:9;stroke-linecap:round;stroke-linejoin:round;stroke-miterlimit:10;}
	.st100{fill:none;}
	.st101{fill:url(#SVGID_75_);}
	.st102{fill:url(#SVGID_76_);}
	.st103{fill:none;stroke:#7F4B96;stroke-width:3;stroke-linecap:round;stroke-miterlimit:10;}
	.st104{fill:url(#SVGID_77_);}
	.st105{fill:url(#SVGID_78_);}
	.st106{fill:url(#SVGID_79_);}
	.st107{opacity:0.4;}
	.st108{fill:url(#SVGID_80_);}
	.st109{fill:url(#SVGID_81_);}
	.st110{fill:url(#SVGID_82_);}
	.st111{fill:url(#SVGID_83_);}
	.st112{fill:url(#SVGID_84_);}
	.st113{fill:url(#SVGID_85_);}
	.st114{fill:url(#SVGID_86_);}
	.st115{fill:url(#SVGID_87_);}
	.st116{fill:url(#SVGID_88_);}
	.st117{fill:url(#SVGID_89_);}
	.st118{fill:url(#SVGID_90_);}
</style>
<metadata>
	<sfw  xmlns="&ns_sfw;">
		<slices></slices>
		<sliceSourceBounds  bottomLeftOrigin="true" height="540.3" width="725.2" x="0" y="0.1"></sliceSourceBounds>
	</sfw>
</metadata>
<g>
	<g>
		
			<linearGradient id="SVGID_1_" gradientUnits="userSpaceOnUse" x1="3.051758e-05" y1="209.3102" x2="725.2" y2="209.3102" gradientTransform="matrix(1 0 0 -1 0 540.1102)">
			<stop  offset="0" style="stop-color:#CAC1FC"/>
			<stop  offset="0.5068" style="stop-color:#EEC0D4"/>
			<stop  offset="1" style="stop-color:#FFEDEE"/>
		</linearGradient>
		<path class="st0" d="M357.8,540.2L0,333.6l367.4-212.1l357.8,206.6L357.8,540.2z"/>
	</g>
	<g class="st1">
		<path class="st2" d="M480.5,381L260,253.7l127.3-73.3l220.5,127.3L480.5,381z"/>
	</g>
	<g>
		<line class="st3" x1="590.8" y1="316.5" x2="596.8" y2="319.9"/>
		<line class="st3" x1="577.3" y1="324.5" x2="583.3" y2="328"/>
		<line class="st3" x1="563.4" y1="333.6" x2="569.4" y2="337.1"/>
		<line class="st3" x1="549.4" y1="340.2" x2="555.4" y2="343.6"/>
		<line class="st3" x1="533.5" y1="349.2" x2="539.5" y2="352.8"/>
		<line class="st3" x1="519.4" y1="357.6" x2="525.4" y2="361.1"/>
		<line class="st3" x1="504.3" y1="366.5" x2="510.3" y2="369.9"/>
		<line class="st3" x1="488.6" y1="374.9" x2="494.6" y2="378.2"/>
	</g>
	<g>
		<line class="st3" x1="370.7" y1="185.2" x2="376.7" y2="188.8"/>
		<line class="st3" x1="357.2" y1="193.4" x2="363.2" y2="196.9"/>
		<line class="st3" x1="343.2" y1="202.5" x2="349.2" y2="205.9"/>
		<line class="st3" x1="329.2" y1="209.1" x2="335.2" y2="212.6"/>
		<line class="st3" x1="313.3" y1="218.2" x2="319.3" y2="221.6"/>
		<line class="st3" x1="299.3" y1="226.6" x2="305.3" y2="230"/>
		<line class="st3" x1="284.2" y1="235.2" x2="290.2" y2="238.8"/>
		<line class="st3" x1="268.5" y1="243.7" x2="274.5" y2="247.2"/>
	</g>
	<g>
		<g>
			<path class="st4" d="M432,237.8l-12,4.9c-1.4,0.6-3.1-0.1-3.6-1.5c-0.5-1.2-0.1-2.5,0.9-3.3l10.3-8c2-1.5,4.8-1.2,6.4,0.8
				c1.5,2,1.2,4.8-0.8,6.4C432.7,237.5,432.3,237.7,432,237.8z"/>
		</g>
		<g>
			<path class="st4" d="M445.1,244.6l-10.6,7.3c-1.4,1-3.3,0.6-4.3-0.8c-0.8-1.1-0.7-2.6,0.1-3.7l8-10.1c1.7-2.2,4.9-2.6,7.1-0.8
				c2.2,1.7,2.6,4.9,0.8,7.1C445.9,243.9,445.5,244.2,445.1,244.6z"/>
		</g>
		<g>
			
				<linearGradient id="SVGID_2_" gradientUnits="userSpaceOnUse" x1="440.3515" y1="417.9459" x2="473.5013" y2="417.9459" gradientTransform="matrix(1 0 0 -1 0 540.1102)">
				<stop  offset="0" style="stop-color:#F0DBDA"/>
				<stop  offset="0.1126" style="stop-color:#F7EBEB"/>
				<stop  offset="0.2531" style="stop-color:#FBF7F6"/>
				<stop  offset="0.4508" style="stop-color:#FEFDFD"/>
				<stop  offset="1" style="stop-color:#FFFFFF"/>
			</linearGradient>
			<path class="st5" d="M472.1,103c-1.8,1.1-3.3,2.8-4.2,4.7l-0.2,0.4l-0.1,0.4l-0.3,0.8l-0.1,0.2l-0.1,0.3l-0.2,0.5l-0.3,1.1
				l-1.2,4.3l-2.5,8.7c-0.5,1.6-1.2,3.2-2,4.8c-0.4,0.8-0.8,1.5-1.3,2.2c-0.2,0.4-0.5,0.7-0.7,1.1l-0.7,1l-11,14
				c-1,1.3-3,1.6-4.3,0.5c-1.3-1-1.5-2.9-0.6-4.2l10.2-14.6l0.6-0.8c0.2-0.3,0.3-0.5,0.5-0.8c0.3-0.5,0.6-1.1,0.9-1.7
				c0.5-1.1,1-2.3,1.3-3.5l2-8.6l1-4.3l0.2-1.1l0.1-0.5l0.1-0.3l0.1-0.3l0.4-1.3l0.2-0.7l0.3-0.7c1.4-3.5,5.7-8.7,9.5-8.8
				C470.7,95,472.1,103,472.1,103z"/>
			
				<linearGradient id="SVGID_3_" gradientUnits="userSpaceOnUse" x1="470.5245" y1="446.2578" x2="470.5245" y2="446.2578" gradientTransform="matrix(1 0 0 -1 0 540.1102)">
				<stop  offset="0" style="stop-color:#FFFFFF"/>
				<stop  offset="0.3906" style="stop-color:#FEFDFD"/>
				<stop  offset="0.5335" style="stop-color:#FBF7F6"/>
				<stop  offset="0.6355" style="stop-color:#F7EBEA"/>
				<stop  offset="0.7166" style="stop-color:#F0DBDA"/>
			</linearGradient>
			<path class="st6" d="M470.5,93.9"/>
		</g>
		<path class="st4" d="M492.2,102.5L492.2,102.5c-0.8-3.4-0.3-6.9,1.3-9.9l1.2-2.3l-2.6-3.8l-9.5,9.6l2.5,7.4l8.4,3L492.2,102.5z"/>
		<polygon class="st4" points="507.8,171 472.9,150.4 472.9,100 507.8,120.6 		"/>
		<g>
			<path class="st7" d="M504.8,185.5l-2,56.8c0,0.6-0.5,1-1,1s-1-0.4-1-1l-2-56.8c-0.1-1.7,1.2-3,2.9-3.1s3,1.2,3.1,2.9
				C504.8,185.4,504.8,185.4,504.8,185.5z"/>
		</g>
		<g>
			<path class="st7" d="M470.8,204.5l-2,56.8c0,0.6-0.5,1-1,1s-1-0.4-1-1l-2-56.8c-0.1-1.7,1.2-3,2.9-3.1s3,1.2,3.1,2.9
				C470.8,204.4,470.8,204.4,470.8,204.5z"/>
		</g>
		<path class="st2" d="M463.4,206.8l-39.7-23v-8l46-18.7l38,9.7v12l0,0c0,4.1-2.2,7.9-5.7,9.9l-31,18
			C468.7,208.2,465.8,208.2,463.4,206.8z"/>
		<path class="st4" d="M467.3,201.1l-43.5-25.2l46-26.7l38,17.9v3.9l0,0c0,4.1-2.2,7.9-5.7,9.9L467.3,201.1z"/>
		<path class="st8" d="M496.3,167.2L496.3,167.2c3.7-6.4,1.5-14.7-4.9-18.4l-21.1-12.2l-18.4,31.9l12.5,7.2
			C474,179.4,490.8,179.2,496.3,167.2z"/>
		<g>
			
				<linearGradient id="SVGID_4_" gradientUnits="userSpaceOnUse" x1="418.3431" y1="350.4492" x2="482.1657" y2="350.4492" gradientTransform="matrix(1 0 0 -1 0 540.1102)">
				<stop  offset="0.2994" style="stop-color:#C9C0FF"/>
				<stop  offset="0.6047" style="stop-color:#C8BEFD"/>
				<stop  offset="0.7147" style="stop-color:#C4B7F7"/>
				<stop  offset="0.7931" style="stop-color:#BCACED"/>
				<stop  offset="0.8565" style="stop-color:#B19BDD"/>
				<stop  offset="0.9108" style="stop-color:#A385CA"/>
				<stop  offset="0.958" style="stop-color:#936AB2"/>
				<stop  offset="1" style="stop-color:#7F4B96"/>
			</linearGradient>
			<path class="st9" d="M425.6,229.2l-1.9-23.7l-1-11.8l-0.5-5.9l-0.1-0.7V187c0-0.1,0-0.1,0-0.3V186c0-0.9,0.1-1.8,0.3-2.7
				c0.3-1.8,1-3.6,2-5.2c1-1.6,2.2-3,3.7-4.2c0.4-0.3,0.8-0.6,1.2-0.8l0.7-0.5l1.2-0.8l4.9-3.3l9.8-6.7l19.6-13.3
				c5-3.4,11.9-2.1,15.3,2.9s2.1,11.9-2.9,15.3c-0.4,0.3-0.9,0.6-1.4,0.8l-21.4,10.3l-10.7,5.2l-5.3,2.6l-1.3,0.6l-0.3,0.2l-0.2,0.1
				c-0.1,0,0,0,0,0h-0.1c-0.1,0-0.2,0-0.3,0c-0.1,0-0.2,0.1-0.3,0.2c-0.1,0-0.1,0.1-0.1,0.2c0,0,0,0,0,0.1v0.1v0.2l-0.1,0.7
				l-0.5,5.9l-1,11.8l-1.9,23.7c-0.2,2-2,3.6-4,3.4C427.2,232.6,425.8,231.1,425.6,229.2z"/>
		</g>
		<g>
			<path class="st8" d="M437.7,237l-1.9-23.7l-1-11.8l-0.5-5.9l-0.1-0.7v-0.2c0-0.1,0-0.1,0-0.3v-0.7c0-0.9,0.1-1.8,0.3-2.7
				c0.3-1.8,1-3.6,2-5.2c1-1.6,2.2-3,3.7-4.2c0.4-0.3,0.8-0.6,1.2-0.8l0.7-0.5l1.2-0.8l4.9-3.3l9.8-6.7l19.6-13.3
				c5-3.4,11.9-2.1,15.3,2.9s2.1,11.9-2.9,15.3c-0.4,0.3-0.9,0.6-1.4,0.8l-21.4,10.3l-10.7,5.2l-5.3,2.6l-1.2,0.6l-0.3,0.2l-0.2,0.1
				c-0.1,0,0,0,0,0h-0.1c-0.1,0-0.2,0-0.3,0c-0.1,0-0.2,0.1-0.3,0.2c-0.1,0-0.1,0.1-0.1,0.2c0,0,0,0,0,0.1v0.1v0.2l-0.1,0.7
				l-0.5,5.9l-1,11.8l-1.9,23.7c-0.2,2-2,3.6-4,3.4C439.2,240.2,437.8,238.8,437.7,237z"/>
		</g>
		<path class="st4" d="M474.3,68.5l-1.3,0.3c-2.5,0.7-4.5,2.3-5.8,4.5l0,0c-1.3,2.2-1.6,4.8-1,7.3l0.7,2.6c0.7,2.5,2.3,4.5,4.5,5.8
			l1.9,1.1L474.3,68.5z"/>
		
			<linearGradient id="SVGID_5_" gradientUnits="userSpaceOnUse" x1="461.5434" y1="410.7399" x2="498.8472" y2="417.991" gradientTransform="matrix(1 0 0 -1 0 540.1102)">
			<stop  offset="0" style="stop-color:#F5E1E0"/>
			<stop  offset="1.510795e-02" style="stop-color:#F7E8E7"/>
			<stop  offset="5.481704e-02" style="stop-color:#FCF5F5"/>
			<stop  offset="0.1052" style="stop-color:#FEFDFD"/>
			<stop  offset="0.2009" style="stop-color:#FFFFFF"/>
		</linearGradient>
		<path class="st10" d="M474.6,153.2l-4.9-2.5c-2.3-1.2-3.9-3.5-4.1-6.1l-1-15.8l0,0c-3-1.7-4.7-4.9-4.5-8.3c0-0.1,0-0.3,0-0.4
			l2.8-16.9c0.6-5.1,4.8-8.8,9.3-6.6c0.3,0.1,0.6,0.3,0.9,0.3l12.7,2.1c1.5,0.3,2.7,1.5,2.9,3l0.4,2.8c0.1,1,0.7,1.9,1.5,2.4
			c4.6,3.2,7.5,8.4,7.8,14.1c0,0.5-0.1,0.9-0.2,1.4l-1.5,3.8c-0.2,0.6-0.4,1.2-0.4,1.8l-3,23.6c-0.3,2.5-2.5,4.3-5,4.2l-3.8-0.2
			C481.1,155.7,477.7,154.8,474.6,153.2z"/>
		
			<linearGradient id="SVGID_6_" gradientUnits="userSpaceOnUse" x1="501.7995" y1="406.8875" x2="491.0998" y2="410.3642" gradientTransform="matrix(1 0 0 -1 0 540.1102)">
			<stop  offset="0" style="stop-color:#302E49"/>
			<stop  offset="1" style="stop-color:#FF5760;stop-opacity:0"/>
		</linearGradient>
		<path class="st11" d="M474.6,153.2l-4.9-2.5c-2.3-1.2-3.9-3.5-4.1-6.1l-1-15.8l0,0c-3-1.7-4.7-4.9-4.5-8.3c0-0.1,0-0.3,0-0.4
			l2.8-16.9c0.6-5.1,4.8-8.8,9.3-6.6c0.3,0.1,0.6,0.3,0.9,0.3l12.7,2.1c1.5,0.3,2.7,1.5,2.9,3l0.4,2.8c0.1,1,0.7,1.9,1.5,2.4
			c4.6,3.2,7.5,8.4,7.8,14.1c0,0.5-0.1,0.9-0.2,1.4l-1.5,3.8c-0.2,0.6-0.4,1.2-0.4,1.8l-3,23.6c-0.3,2.5-2.5,4.3-5,4.2l-3.8-0.2
			C481.1,155.7,477.7,154.8,474.6,153.2z"/>
		<g>
			<path class="st12" d="M417,133"/>
		</g>
		<g>
			<line class="st13" x1="442.6" y1="148.6" x2="442.1" y2="149.9"/>
		</g>
		
			<radialGradient id="SVGID_7_" cx="483.4776" cy="412.5823" r="8.0853" gradientTransform="matrix(1 0 0 -1 0 540.1102)" gradientUnits="userSpaceOnUse">
			<stop  offset="0" style="stop-color:#302E49"/>
			<stop  offset="1" style="stop-color:#FF907F;stop-opacity:0"/>
		</radialGradient>
		<path class="st14" d="M490.7,127.5L490.7,127.5l5,6.3l-8.1,17.3l-12-6.6v-13l0,0C480.9,134.6,487.7,132.8,490.7,127.5z"/>
		<g>
			<g>
				<g>
					<path class="st4" d="M456.3,186.6L422,166.8c-1.1-0.7-1.8-1.9-1.8-3.2l0,0l23.9-12l36.1,19v0.1c0,1.2-0.6,2.3-1.7,2.9
						L456.3,186.6z"/>
				</g>
				<g>
					<path class="st2" d="M456.3,184.5l-36.1-20.8l23.9-13.8l36.1,20.8L456.3,184.5z"/>
				</g>
				<g>
					<g>
						
							<linearGradient id="SVGID_8_" gradientUnits="userSpaceOnUse" x1="451.9737" y1="376.1102" x2="465.3509" y2="376.1102" gradientTransform="matrix(1 0 0 -1 0 540.1102)">
							<stop  offset="0" style="stop-color:#302E49"/>
							<stop  offset="1" style="stop-color:#7F4B96"/>
						</linearGradient>
						<path class="st15" d="M460,167.9l-8.1-4.6l5.3-3.1l8.1,4.6L460,167.9z"/>
					</g>
					<g>
						
							<linearGradient id="SVGID_9_" gradientUnits="userSpaceOnUse" x1="440.8365" y1="379.3602" x2="443.9365" y2="379.3602" gradientTransform="matrix(1 0 0 -1 0 540.1102)">
							<stop  offset="0" style="stop-color:#302E49"/>
							<stop  offset="1" style="stop-color:#7F4B96"/>
						</linearGradient>
						<path class="st16" d="M442.7,161.7l-1.9-1.1l1.2-0.7l1.9,1.1L442.7,161.7z"/>
					</g>
					<g>
						
							<linearGradient id="SVGID_10_" gradientUnits="userSpaceOnUse" x1="443.7232" y1="377.5602" x2="446.8232" y2="377.5602" gradientTransform="matrix(1 0 0 -1 0 540.1102)">
							<stop  offset="0" style="stop-color:#302E49"/>
							<stop  offset="1" style="stop-color:#7F4B96"/>
						</linearGradient>
						<path class="st17" d="M445.6,163.5l-1.9-1.1l1.2-0.7l1.9,1.1L445.6,163.5z"/>
					</g>
					<g>
						
							<linearGradient id="SVGID_11_" gradientUnits="userSpaceOnUse" x1="462.1126" y1="367.0602" x2="465.2126" y2="367.0602" gradientTransform="matrix(1 0 0 -1 0 540.1102)">
							<stop  offset="0" style="stop-color:#302E49"/>
							<stop  offset="1" style="stop-color:#7F4B96"/>
						</linearGradient>
						<path class="st18" d="M464,174l-1.9-1.1l1.2-0.7l1.9,1.1L464,174z"/>
					</g>
					<g>
						
							<linearGradient id="SVGID_12_" gradientUnits="userSpaceOnUse" x1="446.7773" y1="372.3102" x2="462.1372" y2="372.3102" gradientTransform="matrix(1 0 0 -1 0 540.1102)">
							<stop  offset="0" style="stop-color:#302E49"/>
							<stop  offset="1" style="stop-color:#7F4B96"/>
						</linearGradient>
						<polygon class="st19" points="448.6,165.2 446.8,164.1 448,163.4 462.1,171.6 460.9,172.2 459,171.2 						"/>
					</g>
					<g>
						
							<linearGradient id="SVGID_13_" gradientUnits="userSpaceOnUse" x1="465.3509" y1="365.3102" x2="468.2509" y2="365.3102" gradientTransform="matrix(1 0 0 -1 0 540.1102)">
							<stop  offset="0" style="stop-color:#302E49"/>
							<stop  offset="1" style="stop-color:#7F4B96"/>
						</linearGradient>
						<path class="st20" d="M467.1,175.7l-1.7-1l1.2-0.7l1.7,1L467.1,175.7z"/>
					</g>
					<g>
						<g>
							
								<linearGradient id="SVGID_14_" gradientUnits="userSpaceOnUse" x1="438.5785" y1="377.9602" x2="441.6785" y2="377.9602" gradientTransform="matrix(1 0 0 -1 0 540.1102)">
								<stop  offset="0" style="stop-color:#302E49"/>
								<stop  offset="1" style="stop-color:#7F4B96"/>
							</linearGradient>
							<path class="st21" d="M440.4,163.1l-1.9-1.1l1.2-0.7l1.9,1.1L440.4,163.1z"/>
						</g>
						<g>
							
								<linearGradient id="SVGID_15_" gradientUnits="userSpaceOnUse" x1="441.4653" y1="376.2602" x2="444.5653" y2="376.2602" gradientTransform="matrix(1 0 0 -1 0 540.1102)">
								<stop  offset="0" style="stop-color:#302E49"/>
								<stop  offset="1" style="stop-color:#7F4B96"/>
							</linearGradient>
							<path class="st22" d="M443.3,164.8l-1.9-1.1l1.2-0.7l1.9,1.1L443.3,164.8z"/>
						</g>
						<g>
							
								<linearGradient id="SVGID_16_" gradientUnits="userSpaceOnUse" x1="444.5193" y1="374.4602" x2="447.6193" y2="374.4602" gradientTransform="matrix(1 0 0 -1 0 540.1102)">
								<stop  offset="0" style="stop-color:#302E49"/>
								<stop  offset="1" style="stop-color:#7F4B96"/>
							</linearGradient>
							<path class="st23" d="M446.4,166.6l-1.9-1.1l1.2-0.7l1.9,1.1L446.4,166.6z"/>
						</g>
						<g>
							
								<linearGradient id="SVGID_17_" gradientUnits="userSpaceOnUse" x1="447.5891" y1="372.6602" x2="450.6891" y2="372.6602" gradientTransform="matrix(1 0 0 -1 0 540.1102)">
								<stop  offset="0" style="stop-color:#302E49"/>
								<stop  offset="1" style="stop-color:#7F4B96"/>
							</linearGradient>
							<path class="st24" d="M449.5,168.4l-1.9-1.1l1.2-0.7l1.9,1.1L449.5,168.4z"/>
						</g>
						<g>
							
								<linearGradient id="SVGID_18_" gradientUnits="userSpaceOnUse" x1="450.6588" y1="370.9602" x2="453.7589" y2="370.9602" gradientTransform="matrix(1 0 0 -1 0 540.1102)">
								<stop  offset="0" style="stop-color:#302E49"/>
								<stop  offset="1" style="stop-color:#7F4B96"/>
							</linearGradient>
							<path class="st25" d="M452.5,170.1l-1.9-1.1l1.2-0.7l1.9,1.1L452.5,170.1z"/>
						</g>
						<g>
							
								<linearGradient id="SVGID_19_" gradientUnits="userSpaceOnUse" x1="453.679" y1="369.1602" x2="456.779" y2="369.1602" gradientTransform="matrix(1 0 0 -1 0 540.1102)">
								<stop  offset="0" style="stop-color:#302E49"/>
								<stop  offset="1" style="stop-color:#7F4B96"/>
							</linearGradient>
							<path class="st26" d="M455.5,171.9l-1.9-1.1l1.2-0.7l1.9,1.1L455.5,171.9z"/>
						</g>
						<g>
							
								<linearGradient id="SVGID_20_" gradientUnits="userSpaceOnUse" x1="459.8546" y1="365.6602" x2="462.9547" y2="365.6602" gradientTransform="matrix(1 0 0 -1 0 540.1102)">
								<stop  offset="0" style="stop-color:#302E49"/>
								<stop  offset="1" style="stop-color:#7F4B96"/>
							</linearGradient>
							<path class="st27" d="M461.7,175.4l-1.9-1.1l1.2-0.7l1.9,1.1L461.7,175.4z"/>
						</g>
						<g>
							
								<linearGradient id="SVGID_21_" gradientUnits="userSpaceOnUse" x1="456.7791" y1="367.4602" x2="459.8792" y2="367.4602" gradientTransform="matrix(1 0 0 -1 0 540.1102)">
								<stop  offset="0" style="stop-color:#302E49"/>
								<stop  offset="1" style="stop-color:#7F4B96"/>
							</linearGradient>
							<path class="st28" d="M458.6,173.6l-1.9-1.1l1.2-0.7l1.9,1.1L458.6,173.6z"/>
						</g>
						<g>
							
								<linearGradient id="SVGID_22_" gradientUnits="userSpaceOnUse" x1="462.8941" y1="363.8602" x2="465.9941" y2="363.8602" gradientTransform="matrix(1 0 0 -1 0 540.1102)">
								<stop  offset="0" style="stop-color:#302E49"/>
								<stop  offset="1" style="stop-color:#7F4B96"/>
							</linearGradient>
							<path class="st29" d="M464.8,177.2l-1.9-1.1l1.2-0.7l1.9,1.1L464.8,177.2z"/>
						</g>
					</g>
					<g>
						<g>
							
								<linearGradient id="SVGID_23_" gradientUnits="userSpaceOnUse" x1="436.4364" y1="376.6602" x2="439.5364" y2="376.6602" gradientTransform="matrix(1 0 0 -1 0 540.1102)">
								<stop  offset="0" style="stop-color:#302E49"/>
								<stop  offset="1" style="stop-color:#7F4B96"/>
							</linearGradient>
							<path class="st30" d="M438.3,164.4l-1.9-1.1l1.2-0.7l1.9,1.1L438.3,164.4z"/>
						</g>
						<g>
							
								<linearGradient id="SVGID_24_" gradientUnits="userSpaceOnUse" x1="439.3231" y1="374.9602" x2="442.4231" y2="374.9602" gradientTransform="matrix(1 0 0 -1 0 540.1102)">
								<stop  offset="0" style="stop-color:#302E49"/>
								<stop  offset="1" style="stop-color:#7F4B96"/>
							</linearGradient>
							<path class="st31" d="M441.2,166.1l-1.9-1.1l1.2-0.7l1.9,1.1L441.2,166.1z"/>
						</g>
						<g>
							
								<linearGradient id="SVGID_25_" gradientUnits="userSpaceOnUse" x1="442.3771" y1="373.1602" x2="445.4771" y2="373.1602" gradientTransform="matrix(1 0 0 -1 0 540.1102)">
								<stop  offset="0" style="stop-color:#302E49"/>
								<stop  offset="1" style="stop-color:#7F4B96"/>
							</linearGradient>
							<path class="st32" d="M444.2,167.9l-1.9-1.1l1.2-0.7l1.9,1.1L444.2,167.9z"/>
						</g>
						<g>
							
								<linearGradient id="SVGID_26_" gradientUnits="userSpaceOnUse" x1="445.4469" y1="371.4602" x2="448.5469" y2="371.4602" gradientTransform="matrix(1 0 0 -1 0 540.1102)">
								<stop  offset="0" style="stop-color:#302E49"/>
								<stop  offset="1" style="stop-color:#7F4B96"/>
							</linearGradient>
							<path class="st33" d="M447.3,169.6l-1.9-1.1l1.2-0.7l1.9,1.1L447.3,169.6z"/>
						</g>
						<g>
							
								<linearGradient id="SVGID_27_" gradientUnits="userSpaceOnUse" x1="448.5167" y1="369.6602" x2="451.6167" y2="369.6602" gradientTransform="matrix(1 0 0 -1 0 540.1102)">
								<stop  offset="0" style="stop-color:#302E49"/>
								<stop  offset="1" style="stop-color:#7F4B96"/>
							</linearGradient>
							<path class="st34" d="M450.4,171.4l-1.9-1.1l1.2-0.7l1.9,1.1L450.4,171.4z"/>
						</g>
						<g>
							
								<linearGradient id="SVGID_28_" gradientUnits="userSpaceOnUse" x1="451.5368" y1="367.9602" x2="454.6368" y2="367.9602" gradientTransform="matrix(1 0 0 -1 0 540.1102)">
								<stop  offset="0" style="stop-color:#302E49"/>
								<stop  offset="1" style="stop-color:#7F4B96"/>
							</linearGradient>
							<path class="st35" d="M453.4,173.1l-1.9-1.1l1.2-0.7l1.9,1.1L453.4,173.1z"/>
						</g>
						<g>
							
								<linearGradient id="SVGID_29_" gradientUnits="userSpaceOnUse" x1="457.7125" y1="364.3602" x2="460.8125" y2="364.3602" gradientTransform="matrix(1 0 0 -1 0 540.1102)">
								<stop  offset="0" style="stop-color:#302E49"/>
								<stop  offset="1" style="stop-color:#7F4B96"/>
							</linearGradient>
							<path class="st36" d="M459.6,176.7l-1.9-1.1l1.2-0.7l1.9,1.1L459.6,176.7z"/>
						</g>
						<g>
							
								<linearGradient id="SVGID_30_" gradientUnits="userSpaceOnUse" x1="454.6369" y1="366.1602" x2="457.7369" y2="366.1602" gradientTransform="matrix(1 0 0 -1 0 540.1102)">
								<stop  offset="0" style="stop-color:#302E49"/>
								<stop  offset="1" style="stop-color:#7F4B96"/>
							</linearGradient>
							<path class="st37" d="M456.5,174.9l-1.9-1.1l1.2-0.7l1.9,1.1L456.5,174.9z"/>
						</g>
						<g>
							
								<linearGradient id="SVGID_31_" gradientUnits="userSpaceOnUse" x1="460.7519" y1="362.5602" x2="463.8519" y2="362.5602" gradientTransform="matrix(1 0 0 -1 0 540.1102)">
								<stop  offset="0" style="stop-color:#302E49"/>
								<stop  offset="1" style="stop-color:#7F4B96"/>
							</linearGradient>
							<path class="st38" d="M462.6,178.5l-1.9-1.1l1.2-0.7l1.9,1.1L462.6,178.5z"/>
						</g>
					</g>
					<g>
						<g>
							
								<linearGradient id="SVGID_32_" gradientUnits="userSpaceOnUse" x1="433.9116" y1="375.3602" x2="437.0116" y2="375.3602" gradientTransform="matrix(1 0 0 -1 0 540.1102)">
								<stop  offset="0" style="stop-color:#302E49"/>
								<stop  offset="1" style="stop-color:#7F4B96"/>
							</linearGradient>
							<path class="st39" d="M435.8,165.7l-1.9-1.1l1.2-0.7l1.9,1.1L435.8,165.7z"/>
						</g>
						<g>
							
								<linearGradient id="SVGID_33_" gradientUnits="userSpaceOnUse" x1="436.8" y1="373.5602" x2="439.9001" y2="373.5602" gradientTransform="matrix(1 0 0 -1 0 540.1102)">
								<stop  offset="0" style="stop-color:#302E49"/>
								<stop  offset="1" style="stop-color:#7F4B96"/>
							</linearGradient>
							<path class="st40" d="M438.7,167.5l-1.9-1.1l1.2-0.7l1.9,1.1L438.7,167.5z"/>
						</g>
						<g>
							
								<linearGradient id="SVGID_34_" gradientUnits="userSpaceOnUse" x1="439.8523" y1="371.8602" x2="442.9523" y2="371.8602" gradientTransform="matrix(1 0 0 -1 0 540.1102)">
								<stop  offset="0" style="stop-color:#302E49"/>
								<stop  offset="1" style="stop-color:#7F4B96"/>
							</linearGradient>
							<path class="st41" d="M441.7,169.2l-1.9-1.1l1.2-0.7l1.9,1.1L441.7,169.2z"/>
						</g>
						<g>
							
								<linearGradient id="SVGID_35_" gradientUnits="userSpaceOnUse" x1="442.9221" y1="370.0602" x2="446.0221" y2="370.0602" gradientTransform="matrix(1 0 0 -1 0 540.1102)">
								<stop  offset="0" style="stop-color:#302E49"/>
								<stop  offset="1" style="stop-color:#7F4B96"/>
							</linearGradient>
							<path class="st42" d="M444.8,171l-1.9-1.1l1.2-0.7l1.9,1.1L444.8,171z"/>
						</g>
						<g>
							
								<linearGradient id="SVGID_36_" gradientUnits="userSpaceOnUse" x1="445.9919" y1="368.3602" x2="449.0919" y2="368.3602" gradientTransform="matrix(1 0 0 -1 0 540.1102)">
								<stop  offset="0" style="stop-color:#302E49"/>
								<stop  offset="1" style="stop-color:#7F4B96"/>
							</linearGradient>
							<path class="st43" d="M447.9,172.7l-1.9-1.1l1.2-0.7l1.9,1.1L447.9,172.7z"/>
						</g>
						<g>
							
								<linearGradient id="SVGID_37_" gradientUnits="userSpaceOnUse" x1="449.012" y1="366.5602" x2="452.112" y2="366.5602" gradientTransform="matrix(1 0 0 -1 0 540.1102)">
								<stop  offset="0" style="stop-color:#302E49"/>
								<stop  offset="1" style="stop-color:#7F4B96"/>
							</linearGradient>
							<path class="st44" d="M450.9,174.5l-1.9-1.1l1.2-0.7l1.9,1.1L450.9,174.5z"/>
						</g>
						<g>
							
								<linearGradient id="SVGID_38_" gradientUnits="userSpaceOnUse" x1="455.1877" y1="363.0602" x2="458.2878" y2="363.0602" gradientTransform="matrix(1 0 0 -1 0 540.1102)">
								<stop  offset="0" style="stop-color:#302E49"/>
								<stop  offset="1" style="stop-color:#7F4B96"/>
							</linearGradient>
							<path class="st45" d="M457.1,178l-1.9-1.1l1.2-0.7l1.9,1.1L457.1,178z"/>
						</g>
						<g>
							
								<linearGradient id="SVGID_39_" gradientUnits="userSpaceOnUse" x1="452.1121" y1="364.8602" x2="455.2121" y2="364.8602" gradientTransform="matrix(1 0 0 -1 0 540.1102)">
								<stop  offset="0" style="stop-color:#302E49"/>
								<stop  offset="1" style="stop-color:#7F4B96"/>
							</linearGradient>
							<path class="st46" d="M454,176.2l-1.9-1.1l1.2-0.7l1.9,1.1L454,176.2z"/>
						</g>
						<g>
							
								<linearGradient id="SVGID_40_" gradientUnits="userSpaceOnUse" x1="458.2271" y1="361.2602" x2="461.3271" y2="361.2602" gradientTransform="matrix(1 0 0 -1 0 540.1102)">
								<stop  offset="0" style="stop-color:#302E49"/>
								<stop  offset="1" style="stop-color:#7F4B96"/>
							</linearGradient>
							<path class="st47" d="M460.1,179.8l-1.9-1.1l1.2-0.7l1.9,1.1L460.1,179.8z"/>
						</g>
					</g>
				</g>
				<polygon class="st48" points="459.6,183.9 457.8,185 457.8,184.4 459.6,183.2 				"/>
			</g>
			<polygon class="st4" points="456.3,184.5 420.2,163.6 420.2,135.2 456.3,156 			"/>
			<path class="st48" d="M435.6,159.7c0,0.8,0.6,1.8,1.4,2.3s1.4,0.2,1.4-0.6s-0.6-1.8-1.4-2.3C436.3,158.6,435.6,158.9,435.6,159.7
				z"/>
		</g>
		<line class="st49" x1="465.8" y1="165.4" x2="462.3" y2="168.8"/>
		<path class="st7" d="M501.8,117.1v-0.2c-0.5-3.1-1.8-6.1-3.6-8.7c-1.8-2.6-4.2-4.8-6.9-6.5l0.3,0.2l-8.1-5.7c0,0-0.1,0-0.3-0.1
			c-2.3-1.6-5.4-0.9-6.9,1.4c-1.6,2.3-0.9,5.4,1.4,6.9l8.3,5.4l0.2,0.1c0,0.1,0.1,0.1,0.1,0.1c3.1,1.7,5.5,4.7,6.4,8.2l-1.8,28.8
			l-25.2,14.1c-1.4,0.8-1.9,2.6-1.2,4.1s2.6,2.2,4.1,1.4l27.8-13.9c1.1-0.6,1.9-1.6,2-2.9v-0.2l3.4-31.4
			C501.9,117.9,501.9,117.6,501.8,117.1z"/>
		<g>
			
				<linearGradient id="SVGID_41_" gradientUnits="userSpaceOnUse" x1="473.9699" y1="445.9194" x2="479.2314" y2="444.2161" gradientTransform="matrix(1 0 0 -1 0 540.1102)">
				<stop  offset="0" style="stop-color:#FF8E7F"/>
				<stop  offset="0.1534" style="stop-color:#FFA399"/>
				<stop  offset="0.3456" style="stop-color:#FFB8B2"/>
				<stop  offset="0.546" style="stop-color:#FFC6C4"/>
				<stop  offset="0.7578" style="stop-color:#FFCFCF"/>
				<stop  offset="1" style="stop-color:#FFD2D2"/>
			</linearGradient>
			<path class="st50" d="M478.6,107.1l-3.4-2c-2-1.2-3.3-3.3-3.3-5.7v-4.3v-13l13.4,11.7l-0.2,9.4
				C485.2,106.7,481.5,108.8,478.6,107.1z"/>
			<linearGradient id="SVGID_42_" gradientUnits="userSpaceOnUse" x1="466.2831" y1="85.2955" x2="488.5" y2="85.2955">
				<stop  offset="0.4047" style="stop-color:#FFD2D2"/>
				<stop  offset="0.6827" style="stop-color:#FFD0D0"/>
				<stop  offset="0.7827" style="stop-color:#FFCBC9"/>
				<stop  offset="0.8541" style="stop-color:#FFC1BE"/>
				<stop  offset="0.9118" style="stop-color:#FFB3AD"/>
				<stop  offset="0.9606" style="stop-color:#FFA297"/>
				<stop  offset="1" style="stop-color:#FF8E7F"/>
			</linearGradient>
			<path class="st51" d="M467.3,78.1L467.3,78.1c-1.2,3.3-1.3,6.8-0.5,10.1l1.5,5.7c0.4,1.6,1.5,3,2.9,3.8l0,0
				c1.4,0.8,3.1,1,4.7,0.6l0,0c4.7-1.2,8.6-4.3,11-8.5l1.6-2.8l-3.3-12.4l-9.7-2.3c-0.6-0.2-1.4-0.1-2.2,0.1
				C470.5,73.2,468.3,75.3,467.3,78.1z"/>
			<g>
				<g>
					<path class="st4" d="M467.4,82.1c0.1-0.3,0.5-0.6,0.8-0.6c0.4-0.1,0.7,0,1,0.2c0.6,0.4,1,1.1,0.8,1.7c-0.5-0.4-0.9-0.7-1.3-0.9
						c-0.2-0.1-0.4-0.2-0.6-0.3C468,82.2,467.8,82.1,467.4,82.1z"/>
				</g>
				<path class="st4" d="M469.1,83.9c0,0.3-0.3,0.5-0.6,0.3s-0.6-0.6-0.6-1c0-0.3,0.3-0.5,0.6-0.3S469.1,83.6,469.1,83.9z"/>
				<g>
					<path class="st4" d="M474.3,84.5c0.4-0.2,0.9-0.2,1.3-0.1s0.8,0.4,1.1,0.7c0.3,0.3,0.5,0.7,0.6,1.2c0.1,0.4,0.1,0.9-0.1,1.3
						c-0.2-0.4-0.4-0.7-0.6-1s-0.4-0.6-0.6-0.8c-0.2-0.3-0.5-0.5-0.7-0.7C474.9,84.9,474.7,84.7,474.3,84.5z"/>
				</g>
				<path class="st4" d="M475.7,87.4c0,0.3-0.3,0.5-0.6,0.3s-0.6-0.6-0.6-1c0-0.3,0.3-0.5,0.6-0.3S475.7,87.1,475.7,87.4z"/>
			</g>
			<g>
				<path class="st48" d="M471.7,91.9c0.2,0,0.1,0,0.1,0l0,0l0,0l0,0l0,0l0,0h0.1L472,92c0.1,0,0.1,0.1,0.2,0.1
					c0.1,0.1,0.2,0.2,0.3,0.4c0.1,0.3,0.1,0.7,0,1c-0.1,0.4-0.5,0.7-0.8,0.8c-0.4,0.2-0.7,0.2-1,0.2c-0.6-0.1-1-0.4-1.2-0.8
					s-0.2-0.9,0.1-1.6l0.1-0.1h0.1l0,0c0.2,0.1,0.4,0.2,0.6,0.4c0.2,0.1,0.4,0.2,0.6,0.2s0.4,0,0.5-0.1s0.1-0.1,0.1-0.2
					c0,0,0-0.1,0.1-0.1v-0.1l0,0l0,0l0,0l0,0l0,0l0,0l0,0C471.7,91.9,471.5,91.9,471.7,91.9z"/>
			</g>
			
				<linearGradient id="SVGID_43_" gradientUnits="userSpaceOnUse" x1="468.6587" y1="883.0159" x2="470.9337" y2="883.0159" gradientTransform="matrix(1 -0.8391 0 -1 0 1363.8125)">
				<stop  offset="0" style="stop-color:#FF8E7F"/>
				<stop  offset="0.1451" style="stop-color:#FFA297"/>
				<stop  offset="0.3453" style="stop-color:#FFB7B1"/>
				<stop  offset="0.5515" style="stop-color:#FFC6C3"/>
				<stop  offset="0.7656" style="stop-color:#FFCFCE"/>
				<stop  offset="1" style="stop-color:#FFD2D2"/>
			</linearGradient>
			<path class="st52" d="M470.9,88.5l-0.8,0.7c-0.7,0.6-1.8-0.2-1.4-1l2.2-5.3L470.9,88.5L470.9,88.5z"/>
		</g>
		<path class="st4" d="M485,97.3c3.7,3.1,6.5-1,8.1-3.8l0,0c2.2-3.8,3.3-8,3.3-12.4v-2.8l0,0c-1.8-4.5-4.5-8.6-8-12l0,0
			c-0.1-0.1-0.3-0.3-0.5-0.3c-2.5-0.8-5.2-0.8-7.7,0.1l-6.4,2.3l-4.1,5.2l1.5,2.3c1.5,2.2,3.5,4.1,5.8,5.4l0,0
			c0.8,0.5,1.5,1.2,1.9,2.1c1.3,2.8,3,5.4,4.9,7.8l-0.1-1.4"/>
		<path class="st53" d="M484.4,92.2l-0.5,0.3l-0.2-6l1.3-0.8c1.3-0.7,2.2-0.1,2,1.3l-0.4,2.2C486.4,90.4,485.5,91.6,484.4,92.2z"/>
		<g>
			<path class="st54" d="M471.7,84.7c0,0,2.6-0.7,6.6,3.3c0.4,0.4,0.7,0.7,0.7,0.7l-0.4,0.2c0,0-0.4,2.6-1.3,2.4s-4-1.5-5-3.6
				C471.6,86.3,471.7,84.7,471.7,84.7z"/>
			<path class="st54" d="M470.2,83.8c0,0-2.6-3.7-6.6-4.3c-0.4-0.1-0.7,0-0.7,0l0.4,0.7c0,0,0.4,3.1,1.3,3.9s4,3.1,5,2.1
				C470.3,85.5,470.2,83.8,470.2,83.8z"/>
			<path class="st54" d="M470.1,83.7c0.3,0.1,0.5,0.3,0.8,0.5s0.5,0.3,0.8,0.5"/>
		</g>
	</g>
	
		<linearGradient id="SVGID_44_" gradientUnits="userSpaceOnUse" x1="539.1711" y1="467.2894" x2="666.4276" y2="393.8179" gradientTransform="matrix(1 0 0 -1 0 540.1102)">
		<stop  offset="0" style="stop-color:#C9C0FF;stop-opacity:0.8"/>
		<stop  offset="1" style="stop-color:#FF5760;stop-opacity:0.5"/>
	</linearGradient>
	<path class="st55" d="M551.6,146.4V58.3c0-19.8,21.5-32.2,38.6-22.3l13.2,7.6c21.3,12.3,34.3,34.9,34.3,59.5v93L551.6,146.4z"/>
	<g>
		<g>
			<linearGradient id="SVGID_45_" gradientUnits="userSpaceOnUse" x1="360.9" y1="156.15" x2="389.1" y2="156.15">
				<stop  offset="0" style="stop-color:#E8DDFF"/>
				<stop  offset="1" style="stop-color:#FFFFFF"/>
			</linearGradient>
			<ellipse class="st56" cx="375" cy="156.2" rx="14.1" ry="6.1"/>
			<linearGradient id="SVGID_46_" gradientUnits="userSpaceOnUse" x1="358.4" y1="141.85" x2="391.6" y2="141.85">
				<stop  offset="0" style="stop-color:#E8DDFF"/>
				<stop  offset="1" style="stop-color:#FFFFFF"/>
			</linearGradient>
			<polygon class="st57" points="389,156.6 360.9,156.2 358.4,127.2 391.6,127.2 			"/>
			
				<linearGradient id="SVGID_47_" gradientUnits="userSpaceOnUse" x1="358.4" y1="412.5602" x2="391.6" y2="412.5602" gradientTransform="matrix(1 0 0 -1 0 540.1102)">
				<stop  offset="0" style="stop-color:#302E49"/>
				<stop  offset="1" style="stop-color:#7F4B96"/>
			</linearGradient>
			<ellipse class="st58" cx="375" cy="127.6" rx="16.6" ry="7.2"/>
			
				<linearGradient id="SVGID_48_" gradientUnits="userSpaceOnUse" x1="357" y1="399.0102" x2="393" y2="399.0102" gradientTransform="matrix(1 0 0 -1 0 540.1102)">
				<stop  offset="0" style="stop-color:#302E49"/>
				<stop  offset="1" style="stop-color:#7F4B96"/>
			</linearGradient>
			<path class="st59" d="M392,137.5c0,4-7.6,7.3-17,7.3s-17-3.3-17-7.3"/>
		</g>
		<g>
			<path class="st4" d="M386.3,102.8l-11.1,4.7L364.1,90c-15.8-24.9-19.3-51.2-8.8-64.7l19.9-25.4L395,48.2
				C405.6,73.9,402,96.1,386.3,102.8z"/>
			<g>
				<path class="st7" d="M375.9,21.3l0.6,105.9c0,0.8-0.7,1.5-1.5,1.5s-1.5-0.7-1.5-1.5l0,0l1.4-105.9c0-0.3,0.2-0.5,0.5-0.5
					C375.7,20.8,375.9,21,375.9,21.3z"/>
			</g>
			<g>
				<path class="st7" d="M362.7,66.1l13.2,26c0.3,0.5,0.1,1.1-0.4,1.3s-1.1,0.1-1.3-0.4l0,0l-12-26.5c-0.1-0.2,0-0.4,0.2-0.4
					C362.4,65.9,362.6,66,362.7,66.1z"/>
			</g>
			<g>
				<path class="st7" d="M391,57.3l-13.5,5.5c-0.5,0.2-1.1,0-1.3-0.6c-0.2-0.5,0-1.1,0.6-1.3h0.1l14-4.2c0.2-0.1,0.4,0,0.4,0.2
					C391.3,57.1,391.2,57.2,391,57.3z"/>
			</g>
		</g>
	</g>
	<g>
		<path class="st2" d="M537,282.8c-3.6,6.3-15,10.4-25.4,9.2c-10.4-1.2-16-7.3-12.3-13.5c3.6-6.3,15-10.4,25.4-9.2
			C535,270.5,540.6,276.6,537,282.8z"/>
		<g>
			<path class="st7" d="M519.2,241.6l2,35.7c0.1,1.7-1.2,3.1-2.8,3.2c-1.6,0.1-3.1-1.2-3.2-2.8c0-0.1,0-0.2,0-0.3l2-35.7
				c0-0.6,0.5-1,1.1-1C518.8,240.6,519.2,241.1,519.2,241.6z"/>
		</g>
		
			<linearGradient id="SVGID_49_" gradientUnits="userSpaceOnUse" x1="518.2001" y1="260.9602" x2="518.2001" y2="260.9602" gradientTransform="matrix(1 0 0 -1 0 540.1102)">
			<stop  offset="0" style="stop-color:#FCE7FA"/>
			<stop  offset="0.1631" style="stop-color:#F4E3FC"/>
			<stop  offset="0.4847" style="stop-color:#ECDFFE"/>
			<stop  offset="1" style="stop-color:#E9DEFF"/>
		</linearGradient>
		<path class="st60" d="M518.2,279.1"/>
		<path class="st4" d="M545.4,233.9c-5.4,9.4-22.5,15.5-38.2,13.7c-15.7-1.8-23.9-10.9-18.5-20.3c5.4-9.4,22.5-15.5,38.2-13.7
			C542.6,215.4,550.8,224.5,545.4,233.9z"/>
		<g>
			<ellipse class="st7" cx="523.7" cy="222.9" rx="5.1" ry="2.2"/>
			<polygon class="st7" points="528.8,223 518.6,222.9 517.7,212.4 529.7,212.4 			"/>
			
				<linearGradient id="SVGID_50_" gradientUnits="userSpaceOnUse" x1="517.6772" y1="327.6602" x2="529.6772" y2="327.6602" gradientTransform="matrix(1 0 0 -1 0 540.1102)">
				<stop  offset="0" style="stop-color:#302E49"/>
				<stop  offset="1" style="stop-color:#7F4B96"/>
			</linearGradient>
			<ellipse class="st61" cx="523.7" cy="212.5" rx="6" ry="2.6"/>
			<path class="st62" d="M529.1,221.1h-0.8v-6h0.8c1.7,0,3,1.4,3,3l0,0C532.1,219.7,530.8,221.1,529.1,221.1z"/>
		</g>
		<g class="st1">
			<g>
				
					<linearGradient id="SVGID_51_" gradientUnits="userSpaceOnUse" x1="522.5222" y1="345.4218" x2="522.5222" y2="332.2162" gradientTransform="matrix(1 0 0 -1 0 540.1102)">
					<stop  offset="0" style="stop-color:#A46799;stop-opacity:0.8"/>
					<stop  offset="1" style="stop-color:#E9DEFF"/>
				</linearGradient>
				<path class="st63" d="M523.3,206.9c0-0.5-0.1-1.1-0.1-1.4c-0.1-0.4-0.2-0.8-0.5-1.1c-0.1-0.2-0.3-0.3-0.4-0.4
					c-0.1-0.1-0.1-0.1-0.3-0.2c-0.1-0.1-0.2-0.2-0.4-0.3c-0.5-0.4-0.8-1-1-1.6c-0.1-0.3-0.2-0.6-0.2-0.9c0-0.2,0-0.3,0-0.5v-0.4
					v-1.5l-0.1-3c0-0.6,0.4-1,1-1c0.6,0,1,0.4,1,1c0,0,0,0,0,0.1l-0.1,3v1.5v0.4c0,0.1,0,0.2,0,0.3c0,0.2,0,0.4,0.1,0.5
					c0.1,0.4,0.3,0.7,0.6,1c0.1,0.1,0.1,0.1,0.2,0.2c0.1,0.1,0.2,0.2,0.3,0.3c0.2,0.2,0.4,0.4,0.6,0.7c0.3,0.5,0.6,1.1,0.7,1.7
					c0.1,0.7,0,1.1,0,1.6c0,0.3-0.3,0.6-0.6,0.6C523.6,207.5,523.3,207.2,523.3,206.9L523.3,206.9z"/>
			</g>
			<g>
				
					<linearGradient id="SVGID_52_" gradientUnits="userSpaceOnUse" x1="524.144" y1="342.9102" x2="527.6995" y2="342.9102" gradientTransform="matrix(1 0 0 -1 0 540.1102)">
					<stop  offset="0" style="stop-color:#A46799;stop-opacity:0.8"/>
					<stop  offset="1" style="stop-color:#E9DEFF"/>
				</linearGradient>
				<path class="st64" d="M524.5,201.2v-1c0-0.4,0.1-0.9,0.2-1.3c0.2-0.4,0.4-0.8,0.7-1.1c0.2-0.2,0.3-0.4,0.4-0.6
					c0.1-0.2,0.1-0.5,0.1-0.7v-1l-0.1-2.1c0-0.6,0.4-1,1-1c0.6,0,1,0.4,1,1v0.1l-0.1,2.1v1c0,0.5-0.1,0.9-0.3,1.3
					c-0.2,0.4-0.5,0.8-0.8,1.1c-0.2,0.2-0.3,0.4-0.5,0.6c-0.1,0.2-0.2,0.5-0.2,0.7v1c0,0.3-0.3,0.6-0.6,0.6
					C524.8,201.9,524.5,201.7,524.5,201.2z"/>
			</g>
		</g>
		<path class="st65" d="M505.3,234l-8.5-4.9l9.1-5.3l8.5,4.9L505.3,234z"/>
		<path class="st48" d="M508.7,239.6l-8.5-4.9l9.1-5.3l8.5,4.9L508.7,239.6z"/>
	</g>
	<g>
		<polygon class="st2" points="202,42 252.7,12.7 252.7,94.6 202,123.9 		"/>
		<path class="st7" d="M251.7,14.5v79.6L203,122.2V42.6L251.7,14.5 M253.7,11l-3,1.7L202,40.9l-1,0.6v1.2v79.6v3.5l3-1.7L252.7,96
			l1-0.6v-1.2V14.5V11L253.7,11z"/>
	</g>
	<g>
		<g>
			<g>
				<path class="st8" d="M264,157.8c0.8-0.7,2.1-1.7,3.3-2.3c1.2-0.7,2.6-1.1,4-1.4c1.4-0.3,2.9-0.4,4.3-0.3
					c0.7,0.1,1.5,0.2,2.2,0.3c0.4,0.1,0.7,0.2,1.1,0.3l0.5,0.2l0.3,0.1h0.1h0.1l0,0l0,0l0,0l0,0c-0.6,1.2,1.3-2.7-1.2,2.7
					s-0.7,1.5-1.3,2.7l0,0l0,0l0,0l0,0l0,0h-0.1l-0.2-0.1l-0.3-0.2c-0.2-0.1-0.4-0.2-0.6-0.3c-0.4-0.2-0.9-0.3-1.4-0.4
					c-0.9-0.2-1.9-0.3-2.9-0.3s-2,0.2-2.9,0.5c-1,0.3-1.8,0.8-2.9,1.4c-0.9,0.5-2,0.3-2.5-0.6C263.1,159.4,263.3,158.5,264,157.8
					L264,157.8z"/>
			</g>
			<g>
				<path class="st48" d="M303.6,199.9l0.6,6.5c0.1,1.3-1.6,2.5-3.9,2.7s-4.2-0.6-4.3-1.9l-0.6-6.5L303.6,199.9z"/>
			</g>
			<path class="st4" d="M299.8,204L299.8,204c5.1-0.5,8.8-5,8.4-10.1l-0.2-1l-18.4,1.7l0.1,1.1C290.2,200.8,294.7,204.5,299.8,204z"
				/>
			
				<linearGradient id="SVGID_53_" gradientUnits="userSpaceOnUse" x1="263.3213" y1="363.1604" x2="308.4319" y2="363.9806" gradientTransform="matrix(0.9957 -9.313200e-02 -9.313200e-02 -0.9957 47.2027 545.5064)">
				<stop  offset="0.3907" style="stop-color:#F9F7FF"/>
				<stop  offset="1" style="stop-color:#C9C0FF"/>
			</linearGradient>
			<path class="st66" d="M299.3,196.5L299.3,196.5c-10.7,1-20.1-6.8-21.1-17.5l-3.8-41.1c-0.9-10.1,6.4-19,16.5-19.9l0,0
				c9.8-0.9,18.5,6.3,19.4,16.1l4.1,44.3C315.3,187.5,308.5,195.6,299.3,196.5z"/>
			
				<linearGradient id="SVGID_54_" gradientUnits="userSpaceOnUse" x1="264.1541" y1="376.4517" x2="280.5968" y2="376.4517" gradientTransform="matrix(0.9957 -9.313200e-02 -9.313200e-02 -0.9957 47.2027 545.5064)">
				<stop  offset="0" style="stop-color:#FAE5F8"/>
				<stop  offset="1" style="stop-color:#C9C0FF"/>
			</linearGradient>
			<path class="st67" d="M282.9,154.2l-7.2-3.3l-1.4-14.6l13.9,6.4c2.1,0.9,3.5,2.9,3.7,5.2l0,0
				C292.3,152.9,287.3,156.4,282.9,154.2z"/>
			<g>
				<path class="st68" d="M278.6,147.2L278.6,147.2c0.1,0.8,0.8,1.7,1.6,2.1l0.8,0.4c0.8,0.4,1.4,0.1,1.4-0.7l0,0"/>
				<polygon class="st4" points="278.3,144.9 276.4,144.1 276.2,142.2 278.1,143.1 				"/>
				<polygon class="st4" points="284.5,148 282.6,147.1 282.4,145.2 284.3,146.2 				"/>
			</g>
			<g>
				<line class="st69" x1="280.7" y1="161.9" x2="279.1" y2="161.2"/>
				<path class="st69" d="M296.2,179l-0.4-3.9c-0.4-3.9-3.7-8.5-7.5-10.2l-4.8-2.2"/>
				<path class="st69" d="M282,181.9l8.3,3.8c3.2,1.5,5.7,0.4,6.1-2.4"/>
				<path class="st48" d="M286.8,168.2c0.1,0.6,0.6,1.2,1.2,1.5s1,0,1-0.5c-0.1-0.6-0.6-1.2-1.2-1.5
					C287.2,167.5,286.7,167.7,286.8,168.2z"/>
				<path class="st48" d="M283.2,166.7c0.1,0.6,0.6,1.2,1.2,1.5s1,0,1-0.5s-0.6-1.2-1.2-1.5S283.2,166.1,283.2,166.7z"/>
				<path class="st70" d="M279.8,165.1c0.1,0.6,0.6,1.2,1.2,1.5s1,0,1-0.5c-0.1-0.6-0.6-1.2-1.2-1.5
					C280.2,164.2,279.7,164.5,279.8,165.1z"/>
				<path class="st69" d="M290.3,179.2c0.3-0.4,0.4-1,0.4-1.7l0,0c-0.2-2.2-2.3-4.9-4.6-5.9l-2.1-1c-2.4-1.1-4.2-0.1-3.8,2.3l0,0
					c0.3,2.2,2.3,4.7,4.6,5.7l2.1,1c0.2,0.1,0.5,0.2,0.7,0.3"/>
				<path class="st4" d="M284.6,176.8l1.2,0.5c1.3,0.6,2.2,0.1,2.1-1.1l0,0c-0.1-1.2-1.3-2.7-2.5-3.3l-1.2-0.5
					c-1.3-0.6-2.3,0-2.1,1.3l0,0C282.2,174.8,283.3,176.2,284.6,176.8z"/>
				<path class="st48" d="M282.6,173.7c0.1,0.7,0.7,1.5,1.4,1.8s1.3,0,1.2-0.6c-0.1-0.7-0.7-1.5-1.4-1.8S282.5,173,282.6,173.7z"/>
			</g>
			<path class="st71" d="M311.7,167.5c-1.1,1.5-2.5,2.8-4.1,3.6c-3.7,1.8-7.1,0.1-7.4-3.8c-0.4-3.9,2.4-8.4,6.1-10.2
				c1.5-0.7,2.9-0.9,4.1-0.6"/>
			<g>
				<path class="st8" d="M308.4,161l5,2.7c2.3,1.2,4.2,3.4,4.8,6c0.7,2.5,0.4,5.1-0.7,7.3s-3.2,3.9-5.5,4.6
					c-1.1,0.4-2.3-0.3-2.7-1.4c-0.3-1,0.2-2.1,1.1-2.6l0.1-0.1c1.2-0.6,2.1-1.5,2.5-2.7c0.2-0.6,0.3-1.2,0.3-1.8
					c-0.1-0.6-0.1-1.2-0.4-1.7c-0.4-1-1.3-1.7-2.3-2.1l-5.1-2l0,0c-1.8-0.7-2.7-2.7-2-4.5s2.7-2.7,4.5-2
					C308.1,160.8,308.2,160.9,308.4,161z"/>
			</g>
			<path class="st68" d="M306,180.2c0.4-0.8,0.9-1.5,1.5-2c1.4-1,2.7-0.2,2.8,1.8s-0.8,4.3-2.2,5.3c-0.2,0.1-0.3,0.2-0.5,0.3"/>
			<path class="st68" d="M262.5,164.2c1.5,0.9,2.7,0.4,2.8-1.1s-1.1-3.5-2.6-4.4s-2.7-0.4-2.8,1.1"/>
		</g>
		<g>
			
				<linearGradient id="SVGID_55_" gradientUnits="userSpaceOnUse" x1="282.6487" y1="317.8201" x2="282.6487" y2="272.9814" gradientTransform="matrix(0.9957 -9.313200e-02 -9.313200e-02 -0.9957 47.2027 545.5064)">
				<stop  offset="0" style="stop-color:#C9C0FF"/>
				<stop  offset="1" style="stop-color:#FB6366;stop-opacity:0"/>
			</linearGradient>
			<path class="st72" d="M308.6,254.1l4.1-28.9c0.8-5.3-1.9-10.6-6.8-12.7c-1.8-0.8-3.9-1.2-6.1-1c-0.2,0-0.5,0.1-0.7,0.1
				c-7.4,1.1-11.8,8.9-9.3,16l9.4,27.4L308.6,254.1z"/>
			<g>
				
					<linearGradient id="SVGID_56_" gradientUnits="userSpaceOnUse" x1="290.1375" y1="299.0927" x2="311.6877" y2="311.5347" gradientTransform="matrix(1 0 0 -1 0 540.1102)">
					<stop  offset="0" style="stop-color:#FF907F;stop-opacity:0.8"/>
					<stop  offset="1" style="stop-color:#E9DEFF;stop-opacity:0.5"/>
				</linearGradient>
				<path class="st73" d="M305.7,219.1l-1.7,36l-8.3-35.1c-0.6-2.7,1-5.4,3.7-6.1c2.7-0.6,5.4,1,6.1,3.7
					C305.6,218.2,305.7,218.6,305.7,219.1z"/>
			</g>
		</g>
	</g>
	<g>
		<g>
			<path class="st2" d="M126.1,333.6l-11.8-11.4c-2.4-2.3-2.5-6.2-0.2-8.6s6.2-2.5,8.6-0.2c0.4,0.4,0.8,0.9,1.1,1.3l8.2,14.2
				c1,1.8,0.4,4.1-1.4,5.1C129.1,335,127.3,334.6,126.1,333.6z"/>
		</g>
		<g>
			<path class="st2" d="M165.7,284.6l16,8.4c1.5,0.8,2.1,2.7,1.3,4.2c-0.7,1.3-2.2,1.9-3.6,1.5l-17.4-4.8c-2.7-0.7-4.2-3.5-3.5-6.2
				s3.5-4.2,6.2-3.5C165.1,284.2,165.4,284.4,165.7,284.6z"/>
		</g>
		<path class="st4" d="M114.2,238.8l-4.5-15.7c-3-10.5-0.9-21.8,5.8-30.5l33.9-15.7l-0.9,44.4L114.2,238.8z"/>
		<g>
			<path class="st4" d="M156.3,282l-8.5-30.6l0.3,1.1l-21-54.7c-2.1-5.4,0.6-11.5,6-13.6c5.4-2.1,11.5,0.6,13.6,6
				c0.1,0.2,0.2,0.4,0.2,0.7l17.3,56l0.2,0.6c0,0.1,0.1,0.3,0.1,0.4l4.4,31.4c0.5,3.5-2,6.8-5.5,7.3
				C160.2,287.1,157.1,285.1,156.3,282z"/>
		</g>
		<g>
			<path class="st4" d="M112.3,309.1l4.8-45.7l-0.1,2l-4.9-48.5c-0.7-6.6,4.2-12.5,10.8-13.2s12.5,4.2,13.2,10.8
				c0,0.4,0.1,0.7,0.1,1.1l0.4,48.7v0.9c0,0.4,0,0.8-0.1,1.1l-9.5,45c-0.8,4-4.8,6.5-8.7,5.7C114.4,316.4,111.9,312.9,112.3,309.1z"
				/>
		</g>
		
			<linearGradient id="SVGID_57_" gradientUnits="userSpaceOnUse" x1="109.6" y1="377.8279" x2="152.3" y2="377.8279" gradientTransform="matrix(1 0 0 -1 0 540.1102)">
			<stop  offset="0" style="stop-color:#E9DEFF"/>
			<stop  offset="5.276257e-02" style="stop-color:#ECE2FF"/>
			<stop  offset="0.3151" style="stop-color:#F7F2FF"/>
			<stop  offset="0.6096" style="stop-color:#FDFCFF"/>
			<stop  offset="1" style="stop-color:#FFFFFF"/>
		</linearGradient>
		<path class="st74" d="M151.1,151.2l1.2-19.8c-0.8-6.4-6.2-10.8-11.7-7.7l-18.9,3.1l-1.2,8.4c-6.8,3.9-10.9,11-10.9,18.8l2.1,5.3
			c0.3,0.7,0.4,1.4,0.5,2.1l-0.5,37.4l12.6,3c5.5,0.6,11.1-0.3,16.2-2.6l3.3-1.8c3.2-1.8,5.3-5.1,5.5-8.8l1.1-26.5l0,0L151.1,151.2z
			"/>
		<g>
			<linearGradient id="SVGID_58_" gradientUnits="userSpaceOnUse" x1="159.8354" y1="152.6464" x2="205.2383" y2="152.6464">
				<stop  offset="0" style="stop-color:#FF8E7F"/>
				<stop  offset="6.611276e-02" style="stop-color:#FFA297"/>
				<stop  offset="0.1482" style="stop-color:#FFB3AD"/>
				<stop  offset="0.2451" style="stop-color:#FFC1BE"/>
				<stop  offset="0.365" style="stop-color:#FFCBC9"/>
				<stop  offset="0.5331" style="stop-color:#FFD0D0"/>
				<stop  offset="1" style="stop-color:#FFD2D2"/>
			</linearGradient>
			<path class="st75" d="M168.6,140.7c4.3,4.9,9.5,9.1,15.3,12.3c2.9,1.6,5.9,3,9.1,4.1c1.5,0.5,3.3,1.1,5,1.6l5.1,1.6
				c1.6,0.5,2.5,2.2,2,3.9c-0.5,1.5-2.1,2.4-3.6,2.1l-5.2-1.1c-1.7-0.4-3.4-0.7-5.3-1.2c-3.6-0.9-7.2-2.2-10.7-3.7
				c-6.9-3.1-13.3-7.4-18.9-12.6l0,0c-2-1.9-2.1-5.1-0.2-7.1c1.9-2,5.1-2.1,7.1-0.2C168.4,140.5,168.5,140.6,168.6,140.7z"/>
		</g>
		<g>
			<path class="st12" d="M207.6,167.2"/>
		</g>
		<linearGradient id="SVGID_59_" gradientUnits="userSpaceOnUse" x1="117.8002" y1="194.5533" x2="132.2796" y2="169.4743">
			<stop  offset="0" style="stop-color:#FF8E7F"/>
			<stop  offset="6.611276e-02" style="stop-color:#FFA297"/>
			<stop  offset="0.1482" style="stop-color:#FFB3AD"/>
			<stop  offset="0.2451" style="stop-color:#FFC1BE"/>
			<stop  offset="0.365" style="stop-color:#FFCBC9"/>
			<stop  offset="0.5331" style="stop-color:#FFD0D0"/>
			<stop  offset="1" style="stop-color:#FFD2D2"/>
		</linearGradient>
		<path class="st76" d="M152.4,181.4l-40.2-3.3l1-11c0-0.1,0.1-0.3,0-0.6c0-3-2.5-5.5-5.5-5.5s-5.5,2.5-5.5,5.5l-0.1,15.8v0.4
			c0,2.5,2,4.7,4.6,4.7l45.4,0.7c1.7,0,3.3-1.3,3.4-3.1C155.6,183.2,154.3,181.6,152.4,181.4z"/>
		
			<linearGradient id="SVGID_60_" gradientUnits="userSpaceOnUse" x1="131.8551" y1="385.9602" x2="152.2551" y2="385.9602" gradientTransform="matrix(-1 0 0 -1 279.7225 540.1102)">
			<stop  offset="0" style="stop-color:#C9C0FF"/>
			<stop  offset="1" style="stop-color:#C9C0FF;stop-opacity:0.2"/>
		</linearGradient>
		<polygon class="st77" points="137.7,164.4 147.9,148.2 137.7,144 127.5,160.1 		"/>
		<polygon class="st48" points="137.7,173.8 147.9,157.7 137.7,153.4 127.5,169.5 		"/>
		<path class="st78" d="M165,144.2c-3.5-3.6-6.5-7.7-9.1-12.1l0,0c-3.8-6.7-12.4-9.1-19.1-5.2l-6,3.4l-2.2,0.1l-7.4,4.3
			c-5.3,3.1-9.1,8.3-10.4,14.4l-3.1,17.9"/>
		<circle class="st53" cx="207.6" cy="164.4" r="5.5"/>
		<circle class="st53" cx="157.8" cy="184.9" r="5.5"/>
		<g>
			<g>
				<path class="st4" d="M144.9,90.4c-0.6-0.3-1.3-0.2-1.8,0c-0.6,0.2-1.1,0.7-1.2,1c-0.2,0.6-0.7,0.9-1.3,0.7
					c-0.6-0.2-0.9-0.7-0.7-1.3c0-0.2,0.1-0.3,0.2-0.4l0.2-0.2c0.4-0.5,0.8-0.7,1.3-0.9c0.4-0.2,0.9-0.3,1.3-0.3
					c0.9,0,1.8,0.1,2.5,0.7c0.1,0.1,0.1,0.3,0,0.5C145.2,90.5,145,90.5,144.9,90.4L144.9,90.4z"/>
			</g>
			<g>
				<path class="st4" d="M139.1,91c-0.3-0.9-1.4-1.7-2.5-2.1s-2.5-0.6-3.6-0.1l0,0c-0.2,0.1-0.4,0-0.4-0.2c-0.1-0.2,0-0.3,0.1-0.4
					c0.6-0.4,1.4-0.6,2.1-0.7c0.7-0.1,1.5-0.1,2.2,0.1c0.7,0.1,1.4,0.4,2.1,0.8c0.7,0.4,1.3,0.9,1.8,1.7l0,0
					c0.3,0.5,0.1,1.1-0.3,1.4c-0.5,0.3-1.1,0.1-1.4-0.3C139.1,91.1,139.1,91.1,139.1,91z"/>
			</g>
			<g>
				<path class="st79" d="M135.1,134.9l4.1-2.4c2.4-1.4,3.9-4,3.9-6.8v-5.1v-5.7l-16.2,9.9l0.2,5.5
					C127.2,134.4,131.6,136.9,135.1,134.9z"/>
				
					<linearGradient id="SVGID_61_" gradientUnits="userSpaceOnUse" x1="138.9893" y1="420.7283" x2="145.3212" y2="418.6784" gradientTransform="matrix(-1 0 0 -1 279.7225 540.1102)">
					<stop  offset="0" style="stop-color:#FF8E7F"/>
					<stop  offset="0.1534" style="stop-color:#FFA399"/>
					<stop  offset="0.3456" style="stop-color:#FFB8B2"/>
					<stop  offset="0.546" style="stop-color:#FFC6C4"/>
					<stop  offset="0.7578" style="stop-color:#FFCFCF"/>
					<stop  offset="1" style="stop-color:#FFD2D2"/>
				</linearGradient>
				<path class="st80" d="M135.1,134.9l4.1-2.4c2.4-1.4,3.9-4,3.9-6.8v-5.1v-15.7l-16.2,9.9l0.2,15.5
					C127.2,134.4,131.6,136.9,135.1,134.9z"/>
				<linearGradient id="SVGID_62_" gradientUnits="userSpaceOnUse" x1="124.73" y1="108.7962" x2="150.0059" y2="108.7962">
					<stop  offset="0.4047" style="stop-color:#FFD2D2"/>
					<stop  offset="0.6827" style="stop-color:#FFD0D0"/>
					<stop  offset="0.7827" style="stop-color:#FFCBC9"/>
					<stop  offset="0.8541" style="stop-color:#FFC1BE"/>
					<stop  offset="0.9118" style="stop-color:#FFB3AD"/>
					<stop  offset="0.9606" style="stop-color:#FFA297"/>
					<stop  offset="1" style="stop-color:#FF8E7F"/>
				</linearGradient>
				<path class="st81" d="M148.8,99.9L148.8,99.9c1.4,4,1.6,8.2,0.5,12.2l-1.8,6.9c-0.5,1.9-1.8,3.6-3.5,4.6l0,0
					c-1.7,1-3.8,1.3-5.7,0.7l0,0c-5.6-1.5-8.8-4.3-11.7-9.4l-0.9-1.7c0.2-2.1-1.5-3.6-0.8-6l2.3-11.3l11.7-2.7
					c0.7-0.2,1.5-0.1,2.4,0C144.7,93.8,147.6,96.5,148.8,99.9z"/>
				<path class="st82" d="M142.6,118.4L142.6,118.4c0.2,1,1.3,1.6,2.2,1.1l0.1-0.1c0.9-0.5,1.6-1.3,2-2.2l0,0"/>
				
					<linearGradient id="SVGID_63_" gradientUnits="userSpaceOnUse" x1="143.0116" y1="429.8174" x2="147.5326" y2="429.8174" gradientTransform="matrix(1 0 0 -1 0 540.1102)">
					<stop  offset="0" style="stop-color:#FFD2D2"/>
					<stop  offset="0.2344" style="stop-color:#FFCFCE"/>
					<stop  offset="0.4485" style="stop-color:#FFC6C3"/>
					<stop  offset="0.6547" style="stop-color:#FFB7B1"/>
					<stop  offset="0.8549" style="stop-color:#FFA297"/>
					<stop  offset="1" style="stop-color:#FF8E7F"/>
				</linearGradient>
				<path class="st83" d="M143,114.1l2,0.7c1,0.9,2.9-0.5,2.4-1.8l-3.1-7.4L143,114.1z"/>
			</g>
			<path class="st84" d="M136.9,111.9l-8.1-4.6c-2-1.1-3.5-0.5-3.5,1.5l0,0"/>
			<path class="st4" d="M147.1,107.5c0,0.4,0.3,0.5,0.7,0.3s0.7-0.8,0.7-1.2c0-0.4-0.3-0.5-0.7-0.3
				C147.4,106.6,147.1,107.1,147.1,107.5z"/>
			<path class="st4" d="M139.1,111.8c0,0.4,0.3,0.5,0.7,0.3s0.7-0.8,0.7-1.2c0-0.4-0.3-0.5-0.7-0.3
				C139.5,110.8,139.1,111.4,139.1,111.8z"/>
			<path class="st4" d="M135.5,101.2l0.9-0.9c1.7-1.5,3.7-2.1,5.4-2.5l3.6,0.5l-0.6-1.9c0.8-1.3-4.9-6.9-6.5-7.3l-2.8-0.6
				c-1,0-2,0-3.2,0.1c-2.2,0.1-2.4-0.1-4.8,0.7l-2.2,1.2c-3.7,3.5-2.9,10.4-1.9,13l0.9,4.7c0.6,1.6,1.1,4.5,1.9,6.4l0.8,2.6v-2.4
				l0.6-5.1l2,1.4v3.2l2-1.2l0.5-4.9l0,0c0.1-0.7,0.3-1.3,0.5-1.9c0.1-0.2,0.2-0.5,0.2-0.7C133.4,104,134.3,102.5,135.5,101.2z"/>
			<path class="st53" d="M128.8,115.9l0.5,0.3l0.2-6l-1.3-0.8c-1.3-0.7-2.2-0.1-2,1.3l0.4,2.2C126.9,114.1,127.8,115.3,128.8,115.9z
				"/>
			<g>
				<path class="st84" d="M137.2,111.2c1.2-1,4.2-3.3,6.5-3c0,0,0.2,2.8-2.1,4.9c-2.3,2-4.9,2.3-4.6-0.7c0-0.3,0-0.4-0.1-0.5
					C136.8,111.7,137,111.4,137.2,111.2z"/>
				<path class="st84" d="M151.8,102.8c-1.2,0.4-4.2,1.6-6.5,4.5c0,0-0.2,3.1,2.1,2.4c2.3-0.6,4.9-3.4,4.6-6c0-0.2,0-0.4,0.1-0.6
					C152.1,102.9,152,102.7,151.8,102.8z"/>
				<line class="st84" x1="143.7" y1="108.3" x2="145.3" y2="107.3"/>
			</g>
			<path class="st4" d="M141.3,91.1l0.5-0.2l0.7-0.1c1.3-0.2,2.5,0.4,3.4,1.5l1,1.3l0,0c1.3,1.9,2.2,4.2,2.3,6.6v0.2L149,100
				c-0.7-1.2-3-1.5-4.1-0.8L141.3,91.1z"/>
		</g>
		<g>
			<line class="st85" x1="214.1" y1="158.2" x2="210.9" y2="161.9"/>
			<path class="st8" d="M212.6,159.9c3.9,3.1,9.9,2.6,13.3-1.2s3.1-9.2-0.8-12.3c-3.9-3.1-9.9-2.6-13.3,1.2
				C208.3,151.2,208.7,156.8,212.6,159.9z"/>
		</g>
	</g>
	<g>
		<line class="st86" x1="215.2" y1="206.2" x2="215.2" y2="326.6"/>
		<g>
			<path class="st7" d="M109.7,257.9l-1.5,120.3c0,1.4-1.1,2.4-2.5,2.4c-1.3,0-2.4-1.1-2.4-2.4l-1.6-120.3c0-2.2,1.7-4,3.9-4.1
				s4,1.7,4.1,3.9C109.7,257.8,109.7,257.9,109.7,257.9z"/>
		</g>
		<g>
			<path class="st7" d="M312.2,375.9l-1.5,120.3c0,1.4-1.1,2.4-2.5,2.4c-1.3,0-2.4-1.1-2.4-2.4l-1.6-120.3c0-2.2,1.7-4,3.9-4.1
				s4,1.7,4.1,3.9C312.2,375.9,312.2,375.9,312.2,375.9z"/>
		</g>
		<g>
			<path class="st7" d="M416.6,319.6L415,420c0,1.4-1.1,2.4-2.5,2.4c-1.3,0-2.4-1.1-2.4-2.4l-1.5-100.3c0-2.2,1.7-4,3.9-4.1
				c2.2,0,4,1.7,4.1,3.9C416.6,319.6,416.6,319.6,416.6,319.6z"/>
		</g>
		<path class="st4" d="M308.2,400.5L87.6,273.1v-11.9L215,199.9l220.5,115.4v11.9L308.2,400.5z"/>
		<path class="st7" d="M308.2,388.6L87.6,261.2L215,188l220.5,127.3L308.2,388.6z"/>
		
			<linearGradient id="SVGID_64_" gradientUnits="userSpaceOnUse" x1="-133.7381" y1="631.5851" x2="-133.7381" y2="586.9044" gradientTransform="matrix(-0.9508 0.3099 0.3099 0.9508 -6.5951 -240.6892)">
			<stop  offset="0" style="stop-color:#7F4B96;stop-opacity:0.8"/>
			<stop  offset="1" style="stop-color:#FF5760;stop-opacity:0"/>
		</linearGradient>
		<path class="st87" d="M295.8,270.6l2.3,29c0.4,5.3,4.2,9.8,9.4,10.9c2,0.4,4.1,0.3,6.1-0.4c0.2-0.1,0.5-0.2,0.7-0.2
			c6.9-2.7,9.5-11.3,5.5-17.6l-15.2-24.5L295.8,270.6z"/>
		<line class="st88" x1="372.7" y1="351.5" x2="152.2" y2="224.2"/>
		
			<linearGradient id="SVGID_65_" gradientUnits="userSpaceOnUse" x1="198.6" y1="261.2602" x2="326.3" y2="261.2602" gradientTransform="matrix(1 0 0 -1 0 540.1102)">
			<stop  offset="0" style="stop-color:#7F4B96"/>
			<stop  offset="1" style="stop-color:#FF5760;stop-opacity:0.5"/>
		</linearGradient>
		<polygon class="st89" points="326.3,252 198.6,325.8 198.6,305.6 326.3,232 		"/>
		<polygon class="st4" points="326.3,229 198.6,302.8 198.6,305.6 326.3,232 		"/>
		
			<linearGradient id="SVGID_66_" gradientUnits="userSpaceOnUse" x1="307.2121" y1="236.7602" x2="315.558" y2="236.7602" gradientTransform="matrix(1 0 0 -1 0 540.1102)">
			<stop  offset="0" style="stop-color:#FFFFFF"/>
			<stop  offset="8.029771e-02" style="stop-color:#FAF8FF"/>
			<stop  offset="0.3034" style="stop-color:#F0E9FF"/>
			<stop  offset="0.5712" style="stop-color:#EBE1FF"/>
			<stop  offset="1" style="stop-color:#E9DEFF"/>
		</linearGradient>
		<circle class="st90" cx="311.4" cy="303.4" r="4.2"/>
		<g>
			
				<linearGradient id="SVGID_67_" gradientUnits="userSpaceOnUse" x1="224.2405" y1="310.9354" x2="309.652" y2="310.9354" gradientTransform="matrix(1 0 0 -1 0 540.1102)">
				<stop  offset="0" style="stop-color:#302E49;stop-opacity:0.2"/>
				<stop  offset="0.9964" style="stop-color:#7F4B96;stop-opacity:0.5"/>
			</linearGradient>
			<path class="st91" d="M306.7,292.9c-8.1-24.1-19.2-47.2-32.9-68.6c-6.8-10.7-14.4-21-22.6-30.8c-2-2.4-4.1-4.9-6.2-7.2l-3.2-3.6
				l-3.3-3.5c-4.3-4.7-8.8-9.2-13.3-13.8c-0.2-0.2-0.2-0.5,0-0.7s0.5-0.2,0.7,0c4.5,4.6,9,9,13.5,13.6l3.3,3.5l3.2,3.5
				c2.2,2.3,4.3,4.8,6.3,7.2c8.3,9.7,16.1,20,23.1,30.7c14.1,21.4,25.5,44.5,34,68.7c0.3,0.8-0.1,1.6-0.9,1.9
				C307.9,294.1,307,293.6,306.7,292.9L306.7,292.9z"/>
		</g>
		<g>
			
				<linearGradient id="SVGID_68_" gradientUnits="userSpaceOnUse" x1="229.2337" y1="377.5472" x2="235.567" y2="377.5472" gradientTransform="matrix(1 0 0 -1 0 540.1102)">
				<stop  offset="0" style="stop-color:#554F77;stop-opacity:0.2"/>
				<stop  offset="0.9964" style="stop-color:#A46799;stop-opacity:0.5"/>
			</linearGradient>
			<path class="st92" d="M229.8,161.7l5.4,0.8c0.3,0,0.5,0.3,0.4,0.6c0,0.3-0.3,0.5-0.6,0.4c0,0,0,0-0.1,0l-5.3-1.5
				c-0.1,0-0.1-0.1-0.1-0.2C229.6,161.8,229.7,161.7,229.8,161.7z"/>
		</g>
		<g>
			
				<linearGradient id="SVGID_69_" gradientUnits="userSpaceOnUse" x1="230.1946" y1="383.3749" x2="234.7247" y2="385.5271" gradientTransform="matrix(1 0 0 -1 0 540.1102)">
				<stop  offset="0" style="stop-color:#554F77;stop-opacity:0.2"/>
				<stop  offset="0.9964" style="stop-color:#A46799;stop-opacity:0.5"/>
			</linearGradient>
			<path class="st93" d="M230.4,155.9l3.9-1.3c0.3-0.1,0.5,0.1,0.6,0.3c0.1,0.3-0.1,0.5-0.3,0.6h-0.1l-4.1,0.6c-0.1,0-0.2,0-0.2-0.1
				C230.2,156,230.3,155.9,230.4,155.9z"/>
		</g>
		<g>
			
				<linearGradient id="SVGID_70_" gradientUnits="userSpaceOnUse" x1="220.2337" y1="370.1809" x2="221.9003" y2="370.1809" gradientTransform="matrix(1 0 0 -1 0 540.1102)">
				<stop  offset="0" style="stop-color:#554F77;stop-opacity:0.2"/>
				<stop  offset="0.9964" style="stop-color:#A46799;stop-opacity:0.5"/>
			</linearGradient>
			<path class="st94" d="M221.6,166l-0.3,7.6c0,0.3-0.2,0.5-0.5,0.5s-0.5-0.2-0.5-0.5l0,0l1-7.6c0-0.1,0.1-0.2,0.2-0.1L221.6,166z"
				/>
		</g>
	</g>
	<g>
		<path class="st48" d="M330.9,353.4c-3.9,2.9-9.6,2.2-12.8-1.5s-2.7-9,1.1-11.8c3.9-2.9,9.6-2.2,12.8,1.5
			C335.2,345.2,334.7,350.6,330.9,353.4z"/>
		<g>
			<path class="st2" d="M382.7,486.2l-14.8-8.4c-0.9-0.5-1.2-1.7-0.7-2.6c0.4-0.7,1.1-1,1.8-1l16.9,1.4c3.1,0.3,5.4,3,5.1,6.1
				s-3,5.4-6.1,5.1C384.1,486.9,383.3,486.6,382.7,486.2z"/>
		</g>
		<g>
			<path class="st2" d="M433.9,477.6l-9.9-11.4c-0.6-0.7-0.5-1.8,0.2-2.4c0.5-0.4,1.2-0.5,1.8-0.3l13.8,6.1c2.6,1.1,3.8,4.2,2.6,6.8
				c-1.1,2.6-4.2,3.8-6.8,2.6C435,478.6,434.3,478.1,433.9,477.6z"/>
		</g>
		<path class="st65" d="M388.9,278.8"/>
		<g>
			
				<linearGradient id="SVGID_71_" gradientUnits="userSpaceOnUse" x1="400.1475" y1="118.2987" x2="447.6135" y2="118.2987" gradientTransform="matrix(1 0 0 -1 0 540.1102)">
				<stop  offset="0" style="stop-color:#7F4B96"/>
				<stop  offset="5.998689e-02" style="stop-color:#936AB2"/>
				<stop  offset="0.1274" style="stop-color:#A385CA"/>
				<stop  offset="0.2049" style="stop-color:#B19BDD"/>
				<stop  offset="0.2954" style="stop-color:#BCACED"/>
				<stop  offset="0.4072" style="stop-color:#C4B7F7"/>
				<stop  offset="0.5642" style="stop-color:#C8BEFD"/>
				<stop  offset="1" style="stop-color:#C9C0FF"/>
			</linearGradient>
			<path class="st95" d="M420.1,382.2l0.1,22.8v5.7c0,1.4,0.1,2.9,0.3,4.3c0.2,1.4,0.6,2.9,1.1,4.3l0.2,0.5l0.3,0.7l0.5,1.3l1.1,2.6
				l16.9,42.4c0.7,1.7-0.2,3.7-1.9,4.4c-1.6,0.6-3.3,0-4.2-1.4l-22.9-39.5l-1.4-2.5l-0.7-1.2l-0.4-0.6l-0.4-0.8
				c-1.1-2-2-4.2-2.7-6.4c-0.7-2.2-1.3-4.5-1.6-6.9l-0.9-5.7l-3.4-22.6c-0.8-5.5,2.9-10.6,8.4-11.4s10.6,2.9,11.4,8.4
				C420.1,381.2,420.1,381.8,420.1,382.2z"/>
		</g>
		<g>
			
				<linearGradient id="SVGID_72_" gradientUnits="userSpaceOnUse" x1="368.7328" y1="114.946" x2="401.3723" y2="114.946" gradientTransform="matrix(1 0 0 -1 0 540.1102)">
				<stop  offset="0" style="stop-color:#7F4B96"/>
				<stop  offset="5.998689e-02" style="stop-color:#936AB2"/>
				<stop  offset="0.1274" style="stop-color:#A385CA"/>
				<stop  offset="0.2049" style="stop-color:#B19BDD"/>
				<stop  offset="0.2954" style="stop-color:#BCACED"/>
				<stop  offset="0.4072" style="stop-color:#C4B7F7"/>
				<stop  offset="0.5642" style="stop-color:#C8BEFD"/>
				<stop  offset="1" style="stop-color:#C9C0FF"/>
			</linearGradient>
			<path class="st96" d="M400.8,386.4l-9.6,21.7l-2.4,5.4l-1.2,2.6c-0.3,0.7-0.6,1.4-0.8,2.1c-1,2.8-1.4,5.9-1.2,9l3.9,47.3
				c0.2,1.9-1.2,3.5-3.1,3.6c-1.7,0.1-3.2-1-3.6-2.6l-10.4-46.3c-1-4.7-1.1-9.7-0.2-14.5c0.2-1.2,0.5-2.4,0.8-3.6l0.8-3l1.6-5.7
				l6.4-22.8c1.5-5.3,7-8.4,12.4-6.9c5.3,1.5,8.4,7,6.9,12.4C401.1,385.6,401,386,400.8,386.4z"/>
		</g>
		
			<linearGradient id="SVGID_73_" gradientUnits="userSpaceOnUse" x1="449.1978" y1="162.7192" x2="407.8645" y2="170.3859" gradientTransform="matrix(0.9682 1.787743e-02 -1.787743e-02 -0.99 9.8446 534.6123)">
			<stop  offset="0" style="stop-color:#FF5760"/>
			<stop  offset="1.564538e-02" style="stop-color:#FF646C"/>
			<stop  offset="6.699997e-02" style="stop-color:#FF888E"/>
			<stop  offset="0.1247" style="stop-color:#FFA8AD"/>
			<stop  offset="0.1885" style="stop-color:#FFC4C7"/>
			<stop  offset="0.2606" style="stop-color:#FFDADC"/>
			<stop  offset="0.3448" style="stop-color:#FFEBEC"/>
			<stop  offset="0.4488" style="stop-color:#FFF6F7"/>
			<stop  offset="0.5948" style="stop-color:#FFFDFD"/>
			<stop  offset="1" style="stop-color:#FFFFFF"/>
		</linearGradient>
		<path class="st97" d="M417.1,353.6l-3.5,1.4l-26.7,8.7l-11,26.7l20.3,4.4c1.9,0.4,3.9,0.3,5.7-0.5l22.3-9
			c-0.9-5.8-5-16.4-5.1-22.3C419,359.6,418.5,355.8,417.1,353.6z"/>
		<linearGradient id="SVGID_74_" gradientUnits="userSpaceOnUse" x1="408.8501" y1="311.3102" x2="444.9203" y2="311.3102">
			<stop  offset="0" style="stop-color:#FF8E7F"/>
			<stop  offset="6.611276e-02" style="stop-color:#FFA297"/>
			<stop  offset="0.1482" style="stop-color:#FFB3AD"/>
			<stop  offset="0.2451" style="stop-color:#FFC1BE"/>
			<stop  offset="0.365" style="stop-color:#FFCBC9"/>
			<stop  offset="0.5331" style="stop-color:#FFD0D0"/>
			<stop  offset="1" style="stop-color:#FFD2D2"/>
		</linearGradient>
		<path class="st98" d="M444.9,320.1l-1.8-18.6c-0.1-1.5-1.4-2.6-2.9-2.5c-1.5,0.1-2.7,1.4-2.6,2.9l0.7,12.7l-22.5-13.2
			c-0.1,0-0.3-0.1-0.5-0.2c-2.2-1.1-4.9-0.1-6,2.1c-1.1,2.2-0.1,4.9,2.1,6l28.8,13.8l0.2,0.1c0.5,0.2,1.1,0.4,1.7,0.3
			C443.8,323.4,445.1,321.9,444.9,320.1z"/>
		<g>
			<g>
				<line class="st99" x1="410.1" y1="300.1" x2="425.7" y2="311.9"/>
			</g>
		</g>
		<g>
			<g>
				<g>
					<path class="st100" d="M413.5,303.8"/>
				</g>
			</g>
		</g>
		<g>
			<g>
				
					<linearGradient id="SVGID_75_" gradientUnits="userSpaceOnUse" x1="418.8427" y1="188.5695" x2="381.6665" y2="232.8744" gradientTransform="matrix(1 0 0 -1 0 540.1102)">
					<stop  offset="7.300034e-03" style="stop-color:#7F4B96"/>
					<stop  offset="1.846366e-02" style="stop-color:#894C92"/>
					<stop  offset="5.943870e-02" style="stop-color:#A84F85"/>
					<stop  offset="0.1059" style="stop-color:#C45179"/>
					<stop  offset="0.1583" style="stop-color:#DA5370"/>
					<stop  offset="0.2196" style="stop-color:#EB5569"/>
					<stop  offset="0.2953" style="stop-color:#F65664"/>
					<stop  offset="0.4016" style="stop-color:#FD5761"/>
					<stop  offset="0.6966" style="stop-color:#FF5760"/>
				</linearGradient>
				<path class="st101" d="M387.9,362.8l-2.8-32.6l-5.4-14.3c0-5,3.5-10.9,8.8-13.8l12.4-8.4c2.6-1.4,5.8-2.4,7.9-0.7
					c6.4,5.3,11.1,10.6,10.4,14l-2.4,26.2l0.4,19.9c-8.7,7.5-17.9,10.3-29.4,9.8L387.9,362.8z"/>
			</g>
		</g>
		<g>
			<g>
				<g>
					<linearGradient id="SVGID_76_" gradientUnits="userSpaceOnUse" x1="380.8959" y1="338.238" x2="353.203" y2="328.1586">
						<stop  offset="0" style="stop-color:#FF8E7F"/>
						<stop  offset="6.611276e-02" style="stop-color:#FFA297"/>
						<stop  offset="0.1482" style="stop-color:#FFB3AD"/>
						<stop  offset="0.2451" style="stop-color:#FFC1BE"/>
						<stop  offset="0.365" style="stop-color:#FFCBC9"/>
						<stop  offset="0.5331" style="stop-color:#FFD0D0"/>
						<stop  offset="1" style="stop-color:#FFD2D2"/>
					</linearGradient>
					<path class="st102" d="M389.2,315.4l-2.6,6.9L386,324l-0.8,1.9c-0.5,1.3-1.1,2.5-1.7,3.7c-2.4,4.8-5.6,9.2-9.4,12.9
						c-3.8,3.8-8.1,6.9-12.8,9.3c-1.2,0.6-2.4,1.2-3.6,1.6c-0.6,0.2-1.2,0.5-1.8,0.7l-1.9,0.6c-1.2,0.5-2.5,0.7-3.8,1.1
						c-0.6,0.2-1.3,0.3-1.9,0.4l-1,0.2l-0.5,0.1h-0.2h-0.1h-0.1l0,0l0,0c-0.3-1.3,0.6,3-0.6-3c-1.1-6-0.3-1.7-0.6-3l0,0l0,0h0.1h0.1
						l0.2-0.1l0.4-0.1l0.8-0.2c0.6-0.2,1.1-0.3,1.6-0.5c1.1-0.4,2.2-0.7,3.2-1.1l1.6-0.6c0.5-0.2,1-0.5,1.5-0.7c1-0.5,2-1,3-1.6
						c3.9-2.3,7.4-5.2,10.4-8.6s5.4-7.2,7.1-11.2c0.4-1,0.9-2,1.2-3.1l0.5-1.6l0.5-1.8l2.1-7c0.8-2.6,3.6-4.1,6.2-3.3
						c2.6,0.8,4.1,3.6,3.3,6.2C389.3,315.1,389.3,315.2,389.2,315.4z"/>
				</g>
			</g>
		</g>
		<g>
			<g>
				<g>
					<path class="st48" d="M376,338.6c-0.9,0-1.9-0.3-2.7-0.8c-2.2-1.5-2.8-4.5-1.3-6.7c2.2-3.2,3.8-6.6,5.3-11l3-8.8
						c0.9-2.5,3.6-3.9,6.1-3s3.1,3.4,4.4,5.5l-0.3,6.2c-1.7,5.1-7.9,12.5-10.6,16.4C379,337.8,377.5,338.6,376,338.6z"/>
				</g>
			</g>
		</g>
		<path class="st53" d="M399.1,297.4L399.1,297.4c2,0,3.6-1.6,3.6-3.6v-15.9h-20v3C382.7,290,390.1,297.4,399.1,297.4z"/>
		<ellipse class="st4" cx="394.5" cy="275.9" rx="13.9" ry="14.3"/>
		<g>
			<path class="st48" d="M396.6,262.6c-2.9-0.1-5.8,1.1-7.8,3.2c-2.1,2.1-3.3,5-3.3,7.9c-0.1,3,1.1,6,3.1,8.2s5,3.6,8.1,3.6
				c0.2,0,0.3,0.2,0.3,0.3c0,0.2-0.2,0.3-0.3,0.3c-3.2,0.1-6.5-1.3-8.8-3.6c-2.3-2.3-3.7-5.6-3.7-8.9c-0.1-3.3,1.2-6.7,3.5-9.1
				c2.3-2.5,5.6-4,9-4l0,0c0.6,0,1,0.4,1,1C397.6,262.1,397.2,262.6,396.6,262.6L396.6,262.6z"/>
		</g>
		<path class="st4" d="M391.8,310.6l9.2,0.7c7,0.5,12.6-5.6,11.4-12.5l-4.5-26.5h-16.8v37.5C391.1,310.2,391.4,310.6,391.8,310.6z"
			/>
		<line class="st103" x1="344.2" y1="350.5" x2="345.4" y2="357.1"/>
		<circle class="st53" cx="440.5" cy="298" r="4.2"/>
		<circle class="st53" cx="338.7" cy="355" r="5.4"/>
		<g>
			<path class="st4" d="M328.4,347.9l6.5,5.1c0.4,0.3,0.5,0.9,0.2,1.3s-0.8,0.5-1.2,0.2l-7.1-4.2c-0.7-0.4-1-1.3-0.5-2.1
				s1.3-1,2.1-0.5C328.3,347.8,328.4,347.9,328.4,347.9z"/>
		</g>
	</g>
	
		<linearGradient id="SVGID_77_" gradientUnits="userSpaceOnUse" x1="99.5603" y1="415.2102" x2="107.6239" y2="408.739" gradientTransform="matrix(1.065 -0.1271 -0.1185 -0.993 76.5218 523.9037)">
		<stop  offset="0" style="stop-color:#7F4B96"/>
		<stop  offset="1" style="stop-color:#302E49"/>
	</linearGradient>
	<path class="st104" d="M139,93.8c-1.3,0.2-2.5,0.8-3.4,1.9c0.9,0,1.8,0.1,2.7,0.3c-0.5,0-0.9,0.1-1.4,0.2l0,0
		c-1.4,0.3-2.5,1.2-2.9,2.4c0,0.1-0.1,0.2-0.1,0.4c0.5,0,1-0.1,1.5,0c-4.6,3.7-1.8,8.6-0.9,10c-0.1-0.4,0.3-1.5,0.3-2
		c0.4-3.4,1.5-4.8,6.6-7.3c1.3-0.6,3,0,4.2,0.5C144.2,96.5,142,93.5,139,93.8z"/>
	
		<linearGradient id="SVGID_78_" gradientUnits="userSpaceOnUse" x1="536.4" y1="359.6102" x2="639.5001" y2="359.6102" gradientTransform="matrix(1 0 0 -1 0 540.1102)">
		<stop  offset="0" style="stop-color:#FF5760"/>
		<stop  offset="1" style="stop-color:#7F4B96;stop-opacity:0.8"/>
	</linearGradient>
	<path class="st105" d="M626.8,209.1l-90.4-52.2V152l12.7,4.8l90.4,40.3v4.9L626.8,209.1z"/>
	
		<linearGradient id="SVGID_79_" gradientUnits="userSpaceOnUse" x1="536.4" y1="365.6102" x2="639.4001" y2="365.6102" gradientTransform="matrix(1 0 0 -1 0 540.1102)">
		<stop  offset="0.3034" style="stop-color:#FF5760"/>
		<stop  offset="0.9927" style="stop-color:#7F4B96"/>
	</linearGradient>
	<path class="st106" d="M626.8,204.2L536.4,152l12.6-7.1l90.4,52.2L626.8,204.2z"/>
	<polyline class="st3" points="232.4,23.2 224.4,19.9 216.5,32.4 	"/>
	<g>
		<g>
			<g>
				<g class="st107">
					<polygon class="st7" points="242.1,68.2 228.2,68.2 228.7,67 242.6,67 					"/>
				</g>
				<g class="st107">
					<polygon class="st7" points="214.7,84 214.2,83.4 228.2,67.3 228.7,67.9 					"/>
				</g>
				<g class="st107">
					<polygon class="st7" points="228.9,67.3 227.9,67.9 227.9,51.8 228.9,51.2 					"/>
				</g>
				<g>
					<polygon class="st7" points="228.4,84.4 214.2,84.4 214.8,83 228.4,83 242.1,67.3 242.7,67.9 					"/>
				</g>
				<g>
					<path class="st7" d="M228.4,67.6"/>
				</g>
				<g>
					<path class="st7" d="M228.4,68.3h-15.1l15.1-17.4h15.1L228.4,68.3z M215.6,66.9h12.8l12.8-14.8h-12.8L215.6,66.9z"/>
				</g>
				<g>
					<path class="st7" d="M242.4,68.6c-0.6,0.3-1.1,0.1-1.1-0.4V53.9l-12.4,14.3c-0.3,0.4-0.7,0.6-1.1,0.6h-12.4v14.3
						c0,0.6-0.5,1.3-1.1,1.7s-1.1,0.1-1.1-0.4V68.2c0-0.4,0.2-0.8,0.5-1.2c0.3-0.4,0.7-0.6,1.1-0.6h13.4l13.6-15.5
						c0.3-0.4,0.7-0.6,1.1-0.6s0.5,0.2,0.5,0.6V67C243.4,67.6,243,68.3,242.4,68.6z"/>
				</g>
				<path class="st7" d="M216.6,66.4c0,1.2-1,2.7-2.1,3.4c-1.2,0.7-2.1,0.3-2.1-0.9s1-2.7,2.1-3.4C215.7,64.8,216.6,65.2,216.6,66.4
					z"/>
				<path class="st7" d="M244.5,50.3c0,1.2-1,2.7-2.1,3.4c-1.2,0.7-2.1,0.3-2.1-0.9s1-2.7,2.1-3.4S244.5,49.1,244.5,50.3z"/>
				<path class="st7" d="M230.6,66.4c0,1.2-1,2.7-2.1,3.4c-1.2,0.7-2.1,0.3-2.1-0.9s1-2.7,2.1-3.4C229.6,64.8,230.6,65.2,230.6,66.4
					z"/>
				<path class="st7" d="M216.6,82.5c0,1.2-1,2.7-2.1,3.4c-1.2,0.7-2.1,0.3-2.1-0.9s1-2.7,2.1-3.4C215.7,80.9,216.6,81.3,216.6,82.5
					z"/>
				<path class="st7" d="M244.5,66.4c0,1.2-1,2.7-2.1,3.4c-1.2,0.7-2.1,0.3-2.1-0.9s1-2.7,2.1-3.4C243.5,64.8,244.5,65.2,244.5,66.4
					z"/>
				<path class="st7" d="M230,50.6c0,0.9-0.7,2-1.6,2.5c-0.9,0.5-1.6,0.2-1.6-0.7s0.7-2,1.6-2.5S230,49.7,230,50.6z"/>
				<path class="st7" d="M230,82.8c0,0.9-0.7,2-1.6,2.5c-0.9,0.5-1.6,0.2-1.6-0.7s0.7-2,1.6-2.5C229.3,81.6,230,81.9,230,82.8z"/>
			</g>
		</g>
	</g>
	<g>
		<g>
			<g>
				<g>
					<path class="st8" d="M591.8,298.3c1.1-1.3,2-2.5,2.6-4c0.7-1.4,1.1-2.9,1.3-4.5c0.4-3.1-0.2-6.2-1.6-8.8
						c-0.4-0.7-0.1-1.6,0.6-2s1.6-0.1,2,0.6c0,0,0,0.1,0.1,0.1l0,0c1.4,3.3,1.7,7,0.9,10.4c-0.4,1.7-1.1,3.3-1.9,4.8
						c-0.9,1.5-2,2.8-3.2,3.9l0,0c-0.2,0.2-0.5,0.2-0.7,0C591.6,298.8,591.6,298.5,591.8,298.3z"/>
				</g>
				<g>
					
						<linearGradient id="SVGID_80_" gradientUnits="userSpaceOnUse" x1="-1624.4784" y1="942.6779" x2="-1619.3234" y2="942.6779" gradientTransform="matrix(1 0 0 1 2186.9241 -620)">
						<stop  offset="0" style="stop-color:#F1EAFF"/>
						<stop  offset="0.8715" style="stop-color:#E9DEFF"/>
					</linearGradient>
					<path class="st108" d="M567.6,314.1l-1.2,13.8v0.1l0,0l-0.8,4.4c-0.1,0.7-0.8,1.1-1.4,1s-1.1-0.7-1-1.3l0.4-4.5v0.1v-13.8
						c0-1.1,0.9-2,2-2s2,0.9,2,2C567.6,314,567.6,314,567.6,314.1z"/>
				</g>
				<g>
					<path class="st65" d="M585.3,302.7l-1.2,11.8v0.1l-0.8,4.4c-0.1,0.7-0.8,1.1-1.4,1s-1.1-0.7-1-1.3l0.4-4.5v0.1v-11.8
						c0-1.1,0.9-2,2-2s2,0.9,2,2C585.3,302.6,585.3,302.6,585.3,302.7z"/>
				</g>
				
					<linearGradient id="SVGID_81_" gradientUnits="userSpaceOnUse" x1="-1596.3729" y1="934.7452" x2="-1619.2146" y2="921.5575" gradientTransform="matrix(1 0 0 1 2186.9241 -620)">
					<stop  offset="0" style="stop-color:#FFFFFF"/>
					<stop  offset="0.8715" style="stop-color:#C9C0FF"/>
				</linearGradient>
				<path class="st109" d="M596.1,302.1c-0.4-3-2.8-5.4-5.8-5.9c-2.6-0.4-5,0.6-6.5,2.4l0,0l-5.5,5.8c-1.8-1.3-4.1-2-6.6-1.8
					c-4.5,0.5-8.1,4.1-8.6,8.5c-0.6,5.8,3.9,10.7,9.6,10.7c2,0,3.9-0.6,5.5-1.7l0,0l0,0c0.5-0.3,0.9-0.7,1.4-1.1l7-6
					c1.7-1.4,3.6-2.6,5.6-3.6C594.8,308.2,596.6,305.3,596.1,302.1z"/>
				<g>
					
						<linearGradient id="SVGID_82_" gradientUnits="userSpaceOnUse" x1="-1614.4784" y1="945.6779" x2="-1609.3234" y2="945.6779" gradientTransform="matrix(1 0 0 1 2186.9241 -620)">
						<stop  offset="0" style="stop-color:#F1EAFF"/>
						<stop  offset="0.8715" style="stop-color:#E9DEFF"/>
					</linearGradient>
					<path class="st110" d="M577.6,317.1l-1.2,13.8v0.1l0,0l-0.8,4.4c-0.1,0.7-0.8,1.1-1.4,1s-1.1-0.7-1-1.3l0.4-4.5v0.1v-13.8
						c0-1.1,0.9-2,2-2s2,0.9,2,2C577.6,317,577.6,317,577.6,317.1z"/>
				</g>
				<g>
					
						<linearGradient id="SVGID_83_" gradientUnits="userSpaceOnUse" x1="-1596.8114" y1="933.278" x2="-1591.6564" y2="933.278" gradientTransform="matrix(1 0 0 1 2186.9241 -620)">
						<stop  offset="0" style="stop-color:#FAF8FF"/>
						<stop  offset="1" style="stop-color:#E9DEFF"/>
					</linearGradient>
					<path class="st111" d="M595.3,305.7l-1.2,11.8v0.1l-0.8,4.4c-0.1,0.7-0.8,1.1-1.4,1s-1.1-0.7-1-1.3l0.4-4.5v0.1v-11.8
						c0-1.1,0.9-2,2-2s2,0.9,2,2C595.3,305.6,595.3,305.6,595.3,305.7z"/>
				</g>
				<g>
					<path class="st4" d="M591.1,322.2l-1.3,1.2c-0.1,0.1-0.2,0.1-0.2,0c-0.1-0.1-0.1-0.1,0-0.2l0.7-1.6c0.1-0.3,0.4-0.4,0.7-0.3
						c0.3,0.1,0.4,0.4,0.3,0.7C591.2,322.1,591.2,322.1,591.1,322.2z"/>
				</g>
				<g>
					<path class="st4" d="M593.1,323.4l-1.3,1.2c-0.1,0.1-0.2,0.1-0.2,0c-0.1-0.1-0.1-0.1,0-0.2l0.7-1.6c0.1-0.3,0.4-0.4,0.7-0.3
						s0.4,0.4,0.3,0.7C593.2,323.3,593.2,323.4,593.1,323.4z"/>
				</g>
				<g>
					<path class="st4" d="M591.9,323.1l-1.3,1.2c-0.1,0.1-0.2,0.1-0.2,0c-0.1-0.1-0.1-0.1,0-0.2l0.7-1.6c0.1-0.3,0.4-0.4,0.7-0.3
						c0.3,0.1,0.4,0.4,0.3,0.7C592,323,591.9,323,591.9,323.1z"/>
				</g>
				<g>
					<g>
						<path class="st4" d="M581.2,319.3l-1.3,1.2c-0.1,0.1-0.2,0.1-0.2,0c-0.1-0.1-0.1-0.1,0-0.2l0.7-1.6c0.1-0.3,0.4-0.4,0.7-0.3
							c0.3,0.1,0.4,0.4,0.3,0.7C581.3,319.2,581.3,319.3,581.2,319.3z"/>
					</g>
					<g>
						<path class="st4" d="M583.3,320.5l-1.3,1.2c-0.1,0.1-0.2,0.1-0.2,0c-0.1-0.1-0.1-0.1,0-0.2l0.7-1.6c0.1-0.3,0.4-0.4,0.7-0.3
							s0.4,0.4,0.3,0.7C583.3,320.4,583.3,320.5,583.3,320.5z"/>
					</g>
					<g>
						<path class="st4" d="M582,320.2l-1.3,1.2c-0.1,0.1-0.2,0.1-0.2,0c-0.1-0.1-0.1-0.1,0-0.2l0.7-1.6c0.1-0.3,0.4-0.4,0.7-0.3
							c0.3,0.1,0.4,0.4,0.3,0.7C582.1,320.1,582.1,320.1,582,320.2z"/>
					</g>
				</g>
				<g>
					<g>
						<path class="st4" d="M573.8,335.2l-1.3,1.2c-0.1,0.1-0.2,0.1-0.2,0c-0.1-0.1-0.1-0.1,0-0.2l0.7-1.6c0.1-0.3,0.4-0.4,0.7-0.3
							c0.3,0.1,0.4,0.4,0.3,0.7C573.8,335.1,573.8,335.2,573.8,335.2z"/>
					</g>
					<g>
						<path class="st4" d="M575.8,336.5l-1.3,1.2c-0.1,0.1-0.2,0.1-0.2,0c-0.1-0.1-0.1-0.1,0-0.2l0.7-1.6c0.1-0.3,0.4-0.4,0.7-0.3
							s0.4,0.4,0.3,0.7C575.9,336.4,575.8,336.4,575.8,336.5z"/>
					</g>
					<g>
						<path class="st4" d="M574.5,336.1l-1.3,1.2c-0.1,0.1-0.2,0.1-0.2,0c-0.1-0.1-0.1-0.1,0-0.2l0.7-1.6c0.1-0.3,0.4-0.4,0.7-0.3
							c0.3,0.1,0.4,0.4,0.3,0.7C574.6,336,574.6,336.1,574.5,336.1z"/>
					</g>
				</g>
				<g>
					<g>
						<path class="st4" d="M563.8,332.2l-1.3,1.2c-0.1,0.1-0.2,0.1-0.2,0c-0.1-0.1-0.1-0.1,0-0.2l0.7-1.6c0.1-0.3,0.4-0.4,0.7-0.3
							c0.3,0.1,0.4,0.4,0.3,0.7C563.9,332.1,563.9,332.2,563.8,332.2z"/>
					</g>
					<g>
						<path class="st4" d="M565.9,333.4l-1.3,1.2c-0.1,0.1-0.2,0.1-0.2,0c-0.1-0.1-0.1-0.1,0-0.2l0.7-1.6c0.1-0.3,0.4-0.4,0.7-0.3
							s0.4,0.4,0.3,0.7C565.9,333.3,565.9,333.4,565.9,333.4z"/>
					</g>
					<g>
						<path class="st4" d="M564.6,333.1l-1.3,1.2c-0.1,0.1-0.2,0.1-0.2,0c-0.1-0.1-0.1-0.1,0-0.2l0.7-1.6c0.1-0.3,0.4-0.4,0.7-0.3
							c0.3,0.1,0.4,0.4,0.3,0.7C564.7,333,564.7,333.1,564.6,333.1z"/>
					</g>
				</g>
			</g>
			<g>
				<g>
					<path class="st7" d="M564.9,292.8c0.1-0.6,0.3-1.1,0.4-1.6c0.1-0.5,0.2-1.1,0.2-1.6c0-1.1-0.1-2.2-0.3-3.3
						c0-0.2,0.1-0.4,0.3-0.4s0.3,0,0.4,0.2c0.5,1.1,0.8,2.2,1,3.4c0.1,0.6,0.1,1.2,0.2,1.8c0,0.6,0,1.2-0.1,1.8c0,0.6-0.5,1-1.1,1
						s-1-0.5-1-1.1C564.8,292.9,564.8,292.8,564.9,292.8L564.9,292.8z"/>
				</g>
				<g>
					<path class="st7" d="M563.5,292.9c-0.5-0.3-0.9-0.6-1.4-0.9s-1-0.5-1.5-0.7c-1-0.4-2.1-0.6-3.2-0.7c-0.2,0-0.3-0.2-0.3-0.4
						c0-0.2,0.1-0.3,0.3-0.3c1.2-0.1,2.4-0.1,3.5,0.1c0.6,0.1,1.2,0.2,1.8,0.4c0.6,0.2,1.1,0.4,1.7,0.6c0.5,0.2,0.8,0.8,0.6,1.3
						s-0.8,0.8-1.3,0.6C563.6,292.9,563.6,292.9,563.5,292.9L563.5,292.9z"/>
				</g>
				<g>
					<path class="st7" d="M564.6,290c-0.2-0.5-0.4-1-0.7-1.5s-0.5-0.9-0.9-1.4c-0.6-0.9-1.4-1.7-2.3-2.4c-0.1-0.1-0.2-0.3-0.1-0.5
						c0.1-0.1,0.3-0.2,0.4-0.1c1,0.5,2,1.2,2.9,2.1c0.4,0.4,0.8,0.9,1.2,1.3c0.4,0.5,0.7,1,1.1,1.4c0.3,0.5,0.2,1.1-0.2,1.4
						C565.5,290.6,564.9,290.5,564.6,290C564.7,290.2,564.7,290.1,564.6,290L564.6,290z"/>
				</g>
				<g>
					
						<linearGradient id="SVGID_84_" gradientUnits="userSpaceOnUse" x1="-1629.166" y1="910.0481" x2="-1619.2861" y2="910.0481" gradientTransform="matrix(1 0 0 1 2186.9241 -620)">
						<stop  offset="0" style="stop-color:#FFFFFF"/>
						<stop  offset="1" style="stop-color:#E9DEFF"/>
					</linearGradient>
					<path class="st112" d="M567.7,292c-1-1.1-1.2-3-2.4-3.9c-1.7-1.3-4.1-2.2-3.3-1.9c1.2,0.5-2.5-1-3.8-1.5c-0.1,0-0.3-0.1-0.4,0
						c0,0.1,0,0.1,0,0.2c0,1.9,0,3.9,0.8,5.7c0.7,1.6,4.1,4.1,5.7,4.8L567.7,292z"/>
				</g>
				
					<linearGradient id="SVGID_85_" gradientUnits="userSpaceOnUse" x1="-1627.4214" y1="910.1703" x2="-1622.1155" y2="910.1703" gradientTransform="matrix(1 0 0 1 2186.9241 -620)">
					<stop  offset="0" style="stop-color:#7F4B96;stop-opacity:0.8"/>
					<stop  offset="1" style="stop-color:#FB6366;stop-opacity:0.1"/>
				</linearGradient>
				<path class="st113" d="M564,293.3l0.9-0.9c-1.7-2-3.4-3.8-5.1-5.3c-0.1,0-0.1,0-0.2-0.1c0.1,1,0.2,2,0.6,2.8
					C560.5,290.8,562.5,292.4,564,293.3z"/>
				<g>
					<path class="st7" d="M572.4,291.1c0.1-0.6,0.1-1.2,0.2-1.8c0.1-0.6,0.2-1.2,0.4-1.8c0.4-1.1,0.9-2.2,1.5-3.2
						c0.1-0.2,0.3-0.2,0.5-0.1c0.1,0.1,0.2,0.3,0.1,0.4c-0.4,1-0.7,2.1-0.8,3.2c-0.1,0.5-0.1,1.1-0.1,1.6s0.1,1.1,0.1,1.6l0,0
						c0.1,0.6-0.4,1-0.9,1.1c-0.6,0.1-1-0.4-1.1-0.9C572.4,291.2,572.4,291.2,572.4,291.1z"/>
				</g>
				<g>
					<path class="st7" d="M573.9,288.6c0.2-0.5,0.5-1,0.8-1.6c0.3-0.5,0.6-1,1-1.5c0.7-0.9,1.6-1.8,2.5-2.5c0.1-0.1,0.4-0.1,0.5,0.1
						c0.1,0.1,0.1,0.3,0,0.4c-0.7,0.8-1.4,1.7-1.9,2.7c-0.2,0.5-0.5,1-0.6,1.5c-0.2,0.5-0.3,1-0.5,1.6l0,0c-0.1,0.5-0.7,0.8-1.2,0.7
						s-0.8-0.7-0.7-1.2C573.9,288.7,573.9,288.7,573.9,288.6z"/>
				</g>
				<path class="st2" d="M575.9,308.5c-1.2,2.1-5.1,3.5-8.6,3.1c-2.8-0.3-4.6-1.7-4.6-3.3c0-0.4-0.3-2.7,0-3.1
					c1.2-2.1,5.5-1.7,9-1.3c1.5,0.2,4.3-0.8,4.5,0.2C576.5,307.1,576.6,307.3,575.9,308.5z"/>
				<path class="st4" d="M575.9,305.9c-1.2,2.1-5.1,3.5-8.6,3.1s-5.4-2.5-4.2-4.6s5.1-3.5,8.6-3.1
					C575.3,301.8,577.2,303.8,575.9,305.9z"/>
				<g>
					<path class="st8" d="M571.6,301.8c0.5-0.2,1.1-0.3,1.7-0.5c0.6-0.1,1.2-0.2,1.8-0.3c1.2-0.1,2.4,0,3.5,0.2
						c0.2,0,0.3,0.2,0.3,0.4c0,0.2-0.2,0.3-0.3,0.3c-1.1,0-2.2,0.2-3.2,0.5c-0.5,0.1-1,0.3-1.5,0.5c-0.5,0.2-1,0.5-1.5,0.7l0,0
						c-0.5,0.3-1.1,0.1-1.4-0.4s-0.1-1.1,0.4-1.4C571.5,301.9,571.6,301.9,571.6,301.8z"/>
				</g>
				<g>
					<path class="st8" d="M572.3,301.3c0.5-0.3,1-0.5,1.6-0.8c0.6-0.2,1.1-0.4,1.7-0.6c1.2-0.3,2.3-0.5,3.5-0.5
						c0.2,0,0.3,0.1,0.3,0.3c0,0.2-0.1,0.3-0.3,0.3c-1.1,0.2-2.1,0.6-3.1,1.1c-0.5,0.2-0.9,0.5-1.4,0.8c-0.4,0.3-0.8,0.6-1.3,1l0,0
						c-0.4,0.3-1.1,0.3-1.4-0.2s-0.3-1.1,0.2-1.4C572.2,301.4,572.2,301.4,572.3,301.3z"/>
				</g>
				<g>
					<path class="st7" d="M577.7,292.3c0.6,0,1.1-0.1,1.6-0.2c0.5-0.1,1.1-0.2,1.6-0.3c1-0.3,2-0.7,3-1.3c0.2-0.1,0.4,0,0.5,0.1
						s0.1,0.3-0.1,0.4c-0.9,0.8-1.8,1.5-2.9,2c-0.5,0.3-1.1,0.5-1.7,0.7c-0.6,0.2-1.2,0.4-1.7,0.5c-0.5,0.2-1.1-0.2-1.2-0.7
						s0.2-1.1,0.7-1.2C577.5,292.3,577.6,292.3,577.7,292.3L577.7,292.3z"/>
				</g>
				
					<linearGradient id="SVGID_86_" gradientUnits="userSpaceOnUse" x1="-1632.366" y1="918.9703" x2="-1610.0242" y2="918.9703" gradientTransform="matrix(1 0 0 1 2186.9241 -620)">
					<stop  offset="0" style="stop-color:#FFFFFF"/>
					<stop  offset="1" style="stop-color:#C9C0FF"/>
				</linearGradient>
				<path class="st114" d="M568.2,290.1c-4.8,0-8.8,3.9-8.8,8.8c0,1.4-0.5,3-1.4,3c-1.9,0-3.4,1.5-3.4,3.4s1.6,2.5,3.5,2.5
					s7.3-0.1,10.1-0.1c4.8,0,8.8-3.9,8.8-8.8S573,290.1,568.2,290.1z"/>
				<g>
					
						<linearGradient id="SVGID_87_" gradientUnits="userSpaceOnUse" x1="-1615.8408" y1="911.6568" x2="-1602.6584" y2="908.3701" gradientTransform="matrix(1 0 0 1 2186.9241 -620)">
						<stop  offset="0" style="stop-color:#E9DEFF"/>
						<stop  offset="1" style="stop-color:#FFFFFF"/>
					</linearGradient>
					<path class="st115" d="M571.3,292.3c1.3-1.3,1.7-3.3,2.9-4.6c1-1.1,2.5-1.7,3.9-2.2c1.5-0.6,3-1.2,4.5-1.8
						c0.2-0.1,0.4-0.1,0.5,0c0,0.1,0,0.1,0,0.2c0,2.3,0,4.7-1,6.8c-0.6,1.2-2.4,2.9-4.2,4.1c-1.5,1-3.5,0.8-4.7-0.5L571.3,292.3z"/>
				</g>
				<g>
					
						<linearGradient id="SVGID_88_" gradientUnits="userSpaceOnUse" x1="-1613.4375" y1="909.7438" x2="-1605.5009" y2="909.7438" gradientTransform="matrix(1 0 0 1 2186.9241 -620)">
						<stop  offset="0" style="stop-color:#7F4B96;stop-opacity:0.8"/>
						<stop  offset="1" style="stop-color:#FB6366;stop-opacity:0.1"/>
					</linearGradient>
					<path class="st116" d="M573.5,292.2c0.3-0.5,0.5-1,0.8-1.4c0.4-0.7,0.7-1.4,1.2-1.9c0.8-0.8,2.1-1.3,3.3-1.8l2.7-1
						c-0.1,1.5-0.3,2.9-0.8,4.1c-0.3,0.6-1.2,1.5-2.2,2.4C577,293.7,574.9,293.6,573.5,292.2L573.5,292.2z"/>
				</g>
				<path class="st4" d="M556.4,303.4l-0.8-0.2c-0.8-0.2-1.5,0.5-1.5,1.3l0,0c0,0.6,0.4,1,0.9,1.2l0.8,0.3c0.6,0.2,1.3-0.1,1.6-0.7
					v-0.1C557.7,304.4,557.2,303.5,556.4,303.4z"/>
				
					<linearGradient id="SVGID_89_" gradientUnits="userSpaceOnUse" x1="-1408.1262" y1="1339.3247" x2="-1397.6115" y2="1339.3247" gradientTransform="matrix(0.9012 0.4334 -0.4334 0.9012 2414.0178 -300.0435)">
					<stop  offset="0" style="stop-color:#7F4B96;stop-opacity:0.8"/>
					<stop  offset="1" style="stop-color:#FB6366;stop-opacity:0.1"/>
				</linearGradient>
				<path class="st117" d="M574.7,299.5L574.7,299.5c0.5-2.1-0.6-4.4-2.6-5.3l-0.4-0.2c-1.4-0.7-2.9-0.6-4.3,0.1l-1,0.5
					c-1.1,0.6-1.9,1.5-2.3,2.7v0.6c-0.9,2.6,0.6,5.4,3.3,6.1l0,0c1.2,0.3,2.6,0.1,3.7-0.5l1.5-0.9
					C573.7,301.8,574.5,300.8,574.7,299.5z"/>
				<circle class="st4" cx="568.5" cy="299.3" r="0.8"/>
			</g>
		</g>
		
			<linearGradient id="SVGID_90_" gradientUnits="userSpaceOnUse" x1="-1645.8375" y1="954.9203" x2="-1637.4917" y2="954.9203" gradientTransform="matrix(1 0 0 1 2186.9241 -620)">
			<stop  offset="0" style="stop-color:#FFFFFF"/>
			<stop  offset="1" style="stop-color:#C9C0FF"/>
		</linearGradient>
		<circle class="st118" cx="545.3" cy="334.9" r="4.2"/>
	</g>
	<path class="st48" d="M591.7,36.8l-1.5-0.9c-0.5-0.3-1-0.6-1.5-0.8v68.8l-37.1-21.4v5.8l37.1,21.4v58.1l3,1.7v-58.1l46,26.6v-5.8
		l-46-26.6V36.8z"/>
</g>
</svg>
